<svg xmlns="http://www.w3.org/2000/svg" xmlns:xlink="http://www.w3.org/1999/xlink" preserveAspectRatio="none" width="640" height="512"><defs><g id="a"><path fill="#38222F" d="M101-100.5q-2.4-4.3-8.5-12.5-7.3-9.8-12.7-14.9-15.3-14.7-33-23l-2.8-1.3-.4-.2q-15.4-6.6-32-8.3-9.4-1.5-24.9.3-14.2 1.6-21 4.3-9.6 3-18.7 7.8-25 13.2-42 37.7-2.7 3.8-5.1 7.9-1.3 2.1-2.8 2.8-1.3.5-3.1 4.2l-5.3 10q-2.9 5.2-2.9 6.4l.5 1.3q.5 1.1.5 1.9l-.3 1.1-.3 1.2q-.8 2.3-.8 3.4 0 .4-1.8 3.7-.3.4-1.1.7-1.1.3-1.9 1.3-1 1.2-4 13l-1.9 8.5q-1.4 7.1-1.4 11.6 0 1.2 1 3.5 1.1 2.3 1.1 3.6 0 2.4-1.7 3.8-1.6 1.3-1.6 2.8l.8 5.5q0 4.1-2.5 10l-2.5 5.7q0 3.5-.8 4.6-.3.4-.8.7l-1 .5q-2.6 1.8-2.6 14.5l.1 5q.3 7.4 1.3 14 .5 3.6 2 11.1 3.2 14.6 7.2 19.8 1 1.3 2.7 2.5 1.2.8 1.5 1.5 1.2 3.1 2.5 4.7.5.5 3.1 2.1l4.2 2.2q2.8 1.3 3.1 1.6l1 1.2.8.8q.5.8.8 1 .4.4 1.5.8 2.3.8 3.8.9l2.8.2 1.6-.4q1.1-.3 4.2-1.6l2.8-1.3 4.5.5 1.3-.2 3-1q2.3 7.9 4 11.7 2.4 5.6 8 13.9l15.5 15.5 2.5 2.5-.4.1 5.5 5q.8.4 1.3 1.1l2.2 2q2.3 1.3 5.8 4.3l9.6 8.5q13.8 11.3 27 11.3t25.3-8.5q4.2-2.9 9.6-7.8l8.4-7.6.5-.4 2.3-2.5.4-.5 5.5-4.8-.4-.2 2.6-2.5h.1q16-15.2 20.5-23.3 2-3.4 3.5-8.3l3.2-10q.7.5 2.1 1.1 1.9.8 3 .8 1.2 0 3.5-.7l.1-.1h.3q.2 0 1.2.7 1.6 1 5 2.1 2.9 1 8.8 2 1.2 0 2-1.3.5-.7 1.3-2.9 1.5-3.6 3.1-4.2l1.5-.5 2.3-.5 1.1-.4 1.9-.6.1-.1 1.7-.7q1-.6 1.5-2l.9-2.5q.7-1.9 1.8-2.5l2.1-1.6 1.5-1.6q1.2-1.5 2.5-6.2l2.6-8.9q2.5-7.3 3.5-17.6.8-8 .8-18.4 0-9.4-2.1-11.4l-1.7-1.3q-.9-.9-1.3-3-.2-1.4-1-3.7l-1.8-4.4q-2.3-6-2.3-10.7 0-1.2.3-3.3l.4-2.1q0-1.3-.5-1.9l-1.2-.8q-1.5-.8-1.5-3.7 0-2.2.8-4 1-1.9 1-3 0-4.8-2.6-17.1-2.8-13-4.8-16.2-.6-.8-1.9-1.1-1-.3-1.3-1.5-.2-.9-1.6-4.7-1.4-3.5-1.4-3.8.3-.5.5-1.3.6-1.4.6-2 0-1-.5-2l-.8-2-8-14.8q-.1-1.1-1.5-1.6-1.7-.5-2-1m-19-11.1.1.2.3.4.2.2.1.2.1.5.7.3q.8.8 1.8 2.2 4.7 5.5 10.8 13.4l.5 1v1l-.1.1-.5.1-.8-1q-1.5-2.3-4.5-6.1-1.7-2.3-5.4-6.3l-3.8-4-2.5-2.1q-2.5-2.2-3-3.3l-.3-.4h-.1v-.1l-.5-.3q-1-.5-2.5-1.8-10.4-8.8-25.7-15.7l-2.9-1.2-1-.4-6.7-2.7q-10-3.4-20.6-5.2Q6.8-144-.9-144q-4.7 0-11.5.8-11.2 1.3-19 4.1-4.1 1.4-8.1 3-5.9 1.4-19.7 9.3-13.6 7.9-16.7 11.5l-6.4 5.9q-4.8 6.6-9.8 12.7-4 5-4.2 5l-.1-.1-.4-.3-.2-.4-.1-.3q.1-1 1.3-2.8.9-1.4 3.3-4.4 3.6-4.5 5-6 2.5-3 3.5-3.5l1.1-1.2q5.9-6.3 13.3-12 8.4-6.1 17.7-10.7l2.1-1 2.3-1 2.4-1.3-.5-.1-.4-.1v-.1q-.3 0-.3-.3l.2-.3q.3-.7 1.8-2.5l1.8-2.4v-.2q-16.1 7.4-33.4 23-5.2 4.7-9.4 9-8.6 9-13 16.7l-.1-.1q-.5.1-1-1.1l-.2-1.3q0-3.3 4.3-9l4.2-5.2 2.5-2.9q2.7-3.8 11.8-12.5 8.7-8.3 12.8-11.1l2.4-1.7.4-.3q6.9-5.1 17-9.2l8-3.1 1.2-.4q3.9-1.4 10.3-3l24.5-3.3q11.6 0 19.1 1.6 4.1 1 8.7 2.7 3.7 1.2 5.1 2.3 2.7 2.3 3 2.8.4.7.7 2.7.3 1.8 1.3 3.1l.9 1.4q0 .8-1 1.2l-5.5-1.5-14.8-3.8q-2.6-.5-2.6 0-1.7-1-5.6-1.4l-8.8-.1q-10.5 0-20.8 2.3-5.5 1.2-12.3 3l-10 3.3-.3.3-1 .7-.8.4-.3.5 5.3-2q3.8-1.4 7.4-2.5 3.4-1 15.8-2.8 12.9-1.8 17-1.8 9.2 0 16.7 1.9 14.1 3.5 19.3 4.4 4 1.3 7.6 2.8l2.9 1.1.2.1q4.5 2.2 9.1 4.8 5.7 3.1 10.7 6.5l4.4 3.4 10.5 9q-.5 0-1.8-.8 1.1.9 1.8.9l.2.2v-.1m5.5 5.3-2.2-2.2-26-27.2q-4-3.5-8.4-7l-4-3.2L44-148l-1.4-1 1.4.6 2.9 1.4q5.1 2.7 12.2 7.2 17 10.8 25.4 21.8L98-99.7l1 1.7.3 1-.1.5-.9 1.5v.1l-.9-1-9.9-10.3M37.4-147q.3 0 .5.2l1.4 1.4 5.6 7.3-.9-.3q-2-.6-4.3-3-3-2.8-3-4.8l.1-.5.6-.3m-22.6 29-.1.2-.6.1q-2.8 0-9.5-2-7.2-2-11.7-4.4l-.3-.2 3.7-.5q3.6-.5 8.1-.5l15.2 1.7-2.2-2.3 4.4 2.4q6.8 4.2 11.3 10.3 4.3 5.5 4.3 7.5 0 1.1-.8 2H36q-.9-.6-5.8-5.4-1.3-.8-3.7-2.7-3.4-2.2-11.8-6.3m-11.2 2.8q3 0 6.5 1.8l17.3 8.7 1.9 1 .2-.1v-.4q0-.4-1.5-2.2l-.1-.1q2.6 1.3 4.7 2.8 4.4 3.2 5.9 6.9v-1q2.5 2 4.4 5 1.5 2.2 1.5 2.7.1.8-.9.8l-2.6-1.4-3.7-2.1q-.3.3 0 1.6v.2l-1.8-.5-1.6-1.5-.1.2q-5.7-3.1-8.9-4.5l-2.3-1-.4.5h-.1l7 4q5.5 2.8 8 5.6l-.7.2-3-1-.6.6q.5 1 3 3.6 2.5 2.5 3.1 3.7l-.5.5-.1.2-.3-.1q-4.8-3.2-6.4-3.7-1.5-.3-7-.3-2.9 0-9.5-2.8-9.5-3.9-19.4-6.4l-5-.9-5.8-.7q-9.1-1.3-18.2-4.7-11.3-4.1-13.6-7.6 4 2 12.6 4.3 10 2.8 16.6 2.6h.1l-.7-.5-4.2-2.6-2.6-2 8.1.8 6.5.5 4.2.1q1 0 2.2-.3l.1-.6q-.5-.7-2.3-1.4l-3.8-1.1-.8-.4q.9.1 3.6-.1l4.6-.5q-2.3-.9-6.2-3-4-2.4-4.6-3.3l.7-.5q5.8 1.6 7.6 1.3 4.5-.9 8.9-.9m34.6-2.8q.4.2-.6.2-2 .1-4.5-1.2h-.1q4 5.3 5.9 8.3l5.4 9.5-.8-.7q-.3-.2 0 1.4-3.5-7-9.4-14.8-5.6-7.2-7.6-8h.2l6.6 2.1 5.5 3-.6.2m6.8 10.2v-.3q-.1-.2.5-.2 2.8.6 5.6 2.6 5.6 4 6.5 10.9l-12.4-11.9q-.4-.3-.2-1.1m0 4.6-.1-.2h.6q2 0 5.3 5.5 3.4 5.5 2.6 8-.8-.5-4.6-6.2-4-5.8-4-6.7v-.4h.1m6.3-6v-.8l.2-.2q-.4-.1-1.7-1.1-4-3.4-10-8 2.4.5 7.6 4 5.2 3.3 6.5 6 1.5 0 3.1 2 2 2.9 3.5 4.4l1 1.7.5.8q-.1-1.7-3.8-10.8 1.6.4 4 6.7 2.3 6.4 1.9 9.8-.6-1.5-1.5-2.5l-.3-.3-.9-.8-.8-.4q.6 2.5.9 5.2l-.1.8q-.8-1.6-10.1-16.5m17.7 8.5q-4.3-7.3-6.5-11.4 5.8 1.7 9.5 9.1Q75-96.8 75-91.8q-.2 2.6-.7 3.6-1.7-5.9-5.5-12.5m0 6.5.4.4 1.3 2q.6 1.5 1.8 7l.4 3.8-2.3 10.3-.3.4q.6-5.5.6-9.5 0-3.8-.4-6.5-.3-3.5-1.5-8m-15.2-.2-.1.9-1.6-2.4q-1.1-1.8-1.4-3.5 1.3.7 2 1.5 1.5 1.4 1.1 3.5m20.1 32.3q2.4-.7 4.1-.7l2.1.2q-.6 1.2-2.2 1.8-1.4.4-1.4.6l.3.5.2.6H74l-3.2-.1-.1-.1-.2-.1-.1-.5v-.5l.1-.1q.8-.9 3.2-1.6m4 5.2 2.3.6q2.7 1 3.8 1.9l.2.2.2.2.6 1 .1.4q0 .3-.3.5l-.6.2-1.4-.7q-1.5-.6-2.1-.6 1.2 1.8 2.4 4l.6 1.1.7 1.5.2 1.3.1.9.3.5.2.4-.2.3v-.5q0-.2-.2 0h-.2l-.5-.9-.7-1q-.4-.6-.9-.9l1.4 2.9q1.3 2.8 1.3 4v.9q-1.1-1-2.3-3.3-1.4-2.8-1.5-4.8H81V-47.6h.2l.3.1v.2l.8.6-.1-.2q-.5-1.6-1.7-3.3l-.9-1.2q-1-1.5-1.7-1.8-1.3-1.3-3.4-2.8L73-57q2-.6 4.7 0m-9.8-1.5q5.8 3 8.9 7 2.8 3.6 3 7.6.6 1.4 1.6 5 1.1 4.1 1.7 7.3l.6 3.3q1.4 7 2.3 20.8.7 11.1.7 18.6 0 1.2-.3 1.5-.2.3-1.2.3l-11.7-1.2Q62.4 10.7 55 10.7l-4.1.1h-1l-3 .2-3.5.2-3.8.1L51.8 7l6.9-2.2q7.2-2 10-2H70q4.3.2 6.8 1.5l1.2.8.5.3q.8.4 1.5.4Q75.2-1.8 71-5 67.1-7.8 63-7.8q-2.8 0-16.1 5.2l-2.5 1L18.9 8.5q-4.7 1.8-6 4.7-.4 1.1-.5 5 0 2.7-1.8 3.8-2.5 1.6-9.9 1.6-3.3 0-8-.9-4.9-1-5.7-2l.1-1.2.3-1.6q.4-2-1.1-5.1-1.5-3.1-3.1-3.5h-1l-.3-.2h-.2l-1.3-.8q-1.3-.7-11-4.4l-10.9-4-6.3-2.9-2.6-1.1q-9.5-3.8-13.5-3.8-5.4 0-11.1 5.5-4.5 4.5-5.8 8.4l.8-.3.6-.3h.2l1.4-.6q0-.2.4-.4h.1l.2-.1.5-.3h.1l2.5-1q2.3-.8 3.8-.8 4.2 0 13 3.3 4.4 1.5 12.6 4.7l1.6.6-.1.1-1.5.1h-3.2l-.3-.1h-.6l-3.8-.2H-54q-7.5.1-13.5.5l-8.2.7h-.2l-5.8.6-4.3.4-.5-.2q-.3-.3-.3-1 0-13.3.5-20 0-2 .3-4 1-7 2.2-13.9 1.7-4.6 3.8-6.6 2-2 10.7-7.4 1.3-.7 3-1.3L-59-44q10.1-3.3 14.9-6.9 5.3-4 13.4-7 6.5-2.4 12.9-3.6 8.5-1.6 23.1-2.8 14.1-1.2 23.7-1.2 9.8 0 17.8 1 12.6 1.7 21 6M.7-77.5H.4q-.4 0-.7-.3-.5-.2-.5-.6l-12.3.8h-9.2q-.3-.3-1.8-.5l-1.3.1h-.6q-7.2-.8-10.9-1.4-6.4-1-12-4.1l.2.1-.1-.1q2 0 8.6.7 5.4.5 8.7.5 5.1 0 12.3-.5 7.2-.4 10.1-.4 7 0 14.2.8 9.8 1 9.8 2.7 0 .4-.5 1.1l-1.6-.1-2.6-.1h.3q1 .4 11 3.1 9.5 2.9 10.4 5l-9.3-1.1q-9.4-1.3-11.6-1.4.3.5 1.6 1.4l1.4.9-24.3.1-17.3.9q.3.2 1.7.5l1.6.6h-1.1l-1-.2-2-.3-.2.1v.4q0 .8.3 1.1.2.1-.3.2-1 .4-5.5 0l-5.1-.7q-9-1.1-11.8-2.8l-.2-.3 14.4 1h1.5l.1-.2.2-.1.2-.6-.2-.3q0-.2-.2-.3h-.3l-1.1-.4q-3.4-.9-9-4.2l.3.1-.2-.2q1.3.3 7.6 1l7.7.5q6.2 0 15.4-.8L1-77.5H.6m101.6-19.9.7 1.4 1.5 3 1.5 2.8 1.2 2.2.4.7q4.2 7.8 4.2 8.5 0 1.3-1.1 2l-.3.1q.6 3-8 6.4-1.5-1.1-5.8-8.5l-4-7.5q0-.5.3-.9.3-.3.8-.3l.3-.5.4-.3.5-.4 5.6-6.4q0-1 .5-1.6.5-.7 1.3-.7M90.8-81.8 89-86.2q1.8.4 5.3 6.2 2 3.3 5 9.6 5.5 11 8.4 20 .8 2.6 1.1 3.1.5.8 1.7.8l1-.3 1.5-.2q1.3 0 2 7.4.5 5.1.5 8.7 0 1.6-.3 2.2l-1.2 1q-.4.3-.6 1.3-.2 1-.7 1.3-.7.5-2.5 1-1.4.3-1.7 1-.4 1.2-.8 1.6-.4.4-1 .4l-1.2-.3q-1.1-.2-3.1-.2-1.7 0-3.8 1.2l-2 1.4 1.3-13.8q.4-5.8.4-11.5 0-14.3-4.3-28.5-1.3-4.5-3.2-9M88.6-80l.6-.1 2.5 5.6 1.1 4q.7 2.1 1.2 4.7 2.5 11.3 2.5 22.4 0 3.1-.3 7.3v.1l-.2.2-.1.4v.2q.3 1 .3 2l-.3 1.3q0 .6-.3 1.3l-.2.8.1 6.8q-.2 5.8-1.5 7.3l-.1.6v.5l-.6 5.8L93-6q-.2.4-.2 1l-.1.8-.8 2.8q-.2.4-.6.7v.7l.4.2v.5q0 .7-.7 3.8-.7 3.5-1.2 4.5l-.1.3-.4.1q-1 0-1-.8v-8l.5-13.7V-16l-.4-5.3q.5 0 1 .4t.8.4v-2.6l.1-3.1q.3-2.1 1-3.3.6-.8.6-2.3l-.3-7.6-.3-8.9q-.7 0-1.3-1-.4-1-.5-2.5l.2.1.8 1.3.8 1.8v.2q.2 0 .3-.2l.1-.1v-.2q.3-.5.3-1l-.2-1.8-.2-1.9.3-2.8.2-2.5q0-3.4-1.6-7.5-1.7-3.6-1.7-4.1v-.3q.5.2 1.4 1.7l1.3 1.9L88.6-80m.7 27.2h-.1m25.1-10 1-.5 1.2-.4.3.1q.3.2.4.5.3.3.5 1.1l.7 2.2 5.4 27.6.2 1.7-.5 2-1.2 5-.1.9-.2.3-.2.4-3.4.1-1-.1-1.5-.5v.1l-.4-2.2.2-1q0-.6.2-1l1-1.9q.4-1.4.4-2.1l-.3-4.9-.2-5q-.2-4-.8-6.9-1-4.1-2.7-4.8l-.8.3-.5.1-.3.1q-.5-.4-1.7-4-1.2-3.5-1.2-4 0-1.6 1.7-2.3 1-.4 3.7-.9h.1m.2-1.9v.1q-1 0-1.3-.8-.8.8-2.3 1l-2 .4-.8.6q-.3 0-.6-.4t-.3-1l-.2-1-1.2-2q-.5-1.2-.5-1.8 0-.6 2-2.1l2.5-2 .1-.1.2-.2h.4q.5 0 1.2 1.8 1.3 4.2 2.8 7.5m-14 48 .5-1.1q.8-1 2-1 1.8 0 2.5.7.8.6.8 1.6 0 4.3-1.2 9.2l-.6 2.1Q103-.8 100.8-1q-.8-.1-1-.6-.5-.8-.5-5.1 0-2.6 1.1-7.5h.1l.2-.4-.1-.3h-.1l-.3.3-.1.2-.1-.8q0-.6.5-1.4v-.1m11-6.1 1 .4q1.1.3 1.7.8-2.4-1.3-3.3 1.7l-.6 2.8q-.4 1.8-.8 2.6l-.2-3.6q0-1.8.5-3.1.6-1.6 1.7-1.6m3.2 5.4q.4-1 4.2-1.6 2.6-.4 5.1-.4.8 0 1.1.6v.1q.3.3.4.8v.5q0 .9-1 8L123 1.8l-.3 2q-2.5 18.6-3 21.1l-1.4 7.3-1.5 7.5-2.3 12.3q-1.2 10-2.8 17.4-1.7 8.2-3.3 11l1.3-6.5 2-11.6.1-.6.1-.3.1-.6.9-4.5q.7-3.7 1-4.4h-.2l.4-1.6q-1.4.4-4.2.1l-1.8-.1-2.5-.2q-1.5 0-2.6.5-1.6.6-2.2 2.4-.3.8-.3 1.8l-.1.1v.1l-.6 4-.6 2.3v.1l-.2.3-.2 1.4v-.1l-.1-.1-.1-.2-.1-.4v-.6l.1-.2h.2l1.3-6.8q0-3.6 1.7-7.3 1.6-3.4 1.2-6.6l.3-2-.4.3h-.5l-.2-.1v-.5l.6-3.3q1.5-7.9 2.7-17.5l2.2-15.1q1 .6 1.5 1.1.5.6.8 1.3.5 1.3-.5 7.5l-1 6.3-.8 4.2h.1q.4-.5.8-2.3l.5-2 .1-1.3q0-1.1.2-2 .3-1.5 2-1.9 2-.5 7.1.2.6.6.6.9l-1.8 12-.1.3-.4 2.4-.8 6.3-1.3 7.9q0 .8.3 1.3.7-3.2 3-18.2L120.5 9h-.5q.3 2.6-1.5 3.3-1.4.6-6.1.6-2.1 0-2.1-1.6v-.7l.6-2.2.3-1q.5-2.7 1.9-13 1.3-10.5 1.6-11.8m10.8 10.8q1 .8 2.9 5.5 1.7 4.3 1.7 5.3 0 10.6-1.3 19.8-.6 4.8-1.4 9.5l1-1 1-.9 1.1-.1h1.3l1.7.4.3-1.6.1-1.2q0-1.2-1.5-5.6-1.6-4.4-1.6-8.4l.1-3.5.4-2q.4.5 1.3.9l.2.2q1.3 1.2 1.6 2l.4 1.1.3 1.1v3l.1.8v2.5l.1 2.3v1.2q0 10.1-1.6 20.3-1.8 11.2-5.3 20.7l-.4 1q-1 3.1-1.7 3.8v.1q.8-4.3 3.1-12.3 2-6.5 2.2-9.3l-.8-.2-2.7-.8q-1-.6-1.2-3-.2-2.5-.8-3-.8 4.2-3.8 23.1-2.3 13.9-3.4 16v-.2l-.2.1-.2-1.1v-1q0-4.6 5-31.6t5-32.4l-.3-1-.4-1.2q-.3-.3-1.5-.7-1.2-.4-1.4-.6-.7-.5-1-1.6-.5-1.1-.5-2.4 0-4.8.5-7.9.4-3.7 1.6-6.1m-3 37.9q2.9 0 2.9 1.7l-1.5 9.3-.7 2.5q-.4.8-1.8.9-1.1.2-2.3-1l-.4-1.4q-.2-1 .3-3.9l.2-3.6v-.6q.3-3.2 2-3.8l1.3-.1m-34.4-16q-1.1 1-2.4 1.3-.7.2-1.7.2h-1.4l-.3-.3q-1.8-.4-12.8-1.4-15.6-1.4-21.1-.8l-1.5-.2Q38 14 24.4 19.6l-10 4.5q-4.6 2-5.8 2l-.4-.4-.2.4-.3.1q0 .4-2 .6l-6.5.1q-7 0-12.6-2-2.1-.7-9.6-4.2-6.1-3-11.8-4.3-4.5-1.1-10-1.6-4.3-.4-9-.4-7.5 0-19.4 1.2-10.7 1.2-11.7 1.2-.6 0-1.8-.5-1.1-.5-1.6-.9h.2l3.8-.5 7.8-.8 9.2-.8 8.1-.4h8.3l4.6.2q14.4 1.6 26.3 7l4 1.8 3.7 1.7 3 .8 1.5.5q.5 0 .8.2l4.5 1.2 5.7-.4 3.8-.3q.5-.2 1.1-.2 0-.3.2-.4l1-.5q8.3-3.8 15.3-6.8 2.8-1 11.5-2.9 7.9-1.8 9.4-1.7H45.8l19.7.3 9.2.7h.8l12.6 1.2m-6 9.3.8 1q.3.7.3 1.3h.1q.3.3.4 1.3V28.4l.3 1.4.2 2.3q0 7.6-1.7 8.4L81 41q-.9.1-1.5 1.1-5.1 8.8-6.2 10.4-2.6 4-4.5 4.5h-.1q3.2-9.3 5-13.3l.5-1v-.1l-.1-1.1V41l-.1-.2-.2-.1-.2-.3q-1.9-1-2.2-1.3l-1.2-1.4q-.3.2-2 2.5l-2.5 3.1-7.3 10.9-.4-.3 6.5-15.1q1.4-3.2 1.6-4.9-1.6.7-4 3-2.1 2.3-2.4 2.4V39q.8-4.5 6.8-11.2 2.2-2.6 4.3-4.5 1.8-1.6 2.6-1.3l1.1.4h1.2v-.1h.1q.2.3 3.4 1.1 2.8 1 2.9 1.3m2.3 1v.2h.2q1 0 1.8 4 .5 1.8.5 4.1 0 3.5-1.2 8.2l-.8 3-.1.4q-2 7-4 9.3l-.1.1-.2.1q2-5.6 3-9.3 2-6.5 2-12.2 0-2.4-.6-4.4-.7-2-.7-3.3l.1-.3m-1.5 38-.1.3-.7 4.6-.5 2.2L81 73q-.5 14.5-7.8 29.3-2.8 5.5-6.1 10-2.8 4-4.8 5.7-1 .8-7.4 7.3-2.6 2.6-5 4.7l-3 2.6-2.4 1.8q-2.5 1.8-8 7.3-6.1 6.1-9.6 9-13 10.6-27.2 10.6-11.2 0-24-9.5-4.3-3-10.6-8.7l-10-8.7q-2.8-2-5.5-4.4-6.2-5.2-12.1-11.8-17.2-19-17-34.1l-.8-5.9v-.5l-.3-1.7-.5-2.9-1.8-8.8.2.1-.1-.4 7.6 6.8q4 3.5 6.9 5.3 7.4 4.6 17.8 4.6 7.5 0 14.2-3 7.1-3.3 15.8-10.9l.7-.7.7-.6q5.7-6.9 9.4-13.1 2-3.9 3.3-7.5 1-2.5 1.8-3.7l.7-1.1q1-1.1 4-1.1 2.4 0 3.1.8.6.6 1.5 3 2.8 8.3 8.9 17l1.3 2 1.7 2 .4.5 3 3.1q4.5 4.3 10.3 7.5 8.4 4.8 16.6 5.8l3.9.1q5.6 0 9.5-1.3 3.4-1.1 9.5-4.8l3.7-2.4.2-.1q2.1-1.8 5-4.9L81 65l.3-.3q.9-.9 1.5-1.1m10.4 19.1q.1-.5 2.2-3.8l-1.7 8.4-.2.2-.3.3H93v-.1q-.3 0-.5-.2-.2-.1-.2-.6.3-2.2.9-4.2m14.8 0v-.5l.2.1v.5h-.2m-94.5-50q.7-1.3 2-2.3 1.8 5.3 3.7 8.8l1.7 2.9q-3.5-2-5.8-4.5-2-2.2-2-3.5 0-.5.5-1.4M-88-93.8q.6 1.9.9 4.3.3 2.5.8 4 1.4 5.2 8 16.8 1.2 1.4 5 4.3 4.6 3.4 8.6 5.3l-.7-.3.7.4q-5.3-1.7-9.4-4.4l-.3-.2q-2.3-1.6-4.2-3.4l-.1-.2-1.6-1.6-.1-.3-.2-.2-.8-1-.3-.4-1-1.5-.6-1-.6-1.3-.7-1.3q-.8-1.8-1.3-3.5L-88-93.8m-13.3-2.9.3 1.2q1 1 3 3.6t2.2 3.1q.5 0 .7.4.3.4.3 1 .8 0 1 .3.3 0 .3.2-.5 2-4.3 9-4 7.6-5.2 7.6-.4 0-1.5-.5-1.8-.6-3.4-2-1.7-1.3-1.9-1.3l-1-.2.7 1.1q.8.7 2.5 1.7 1.2 1 1.2 1.8 0 5.8-2.5 6.3l-2.3-1.1-1.1-.7q-1-.5-1.1-.8l-.8 1q-.6.8-1.3 1.1l.8-2.1v-.1l.3-.9v-.3l.1-.4.5-1 1.5-3.4 1.5-2.2.1-.4q0-.3-.4-1l-.4-1-.2-.5q-.4-1-.4-1.6 0-1.3 3.1-7.2 3-5.8 6.6-11.5.7.2 1 .8m13.9 17.3.1.6-.1-.5v-.1m-3 0 .5-.4.2 1.6-.1 1.4-.7 3.3q-.6 3.2-.7 4.7V-68.5q0 .3.2 0l.3-.1.1.3.2.1.1.1 1.5-.4-.3.9-1 2.7-.6 2.4v1q0 2.5-.3 4.3l-.5 2.4-.2.8-.1 1-.2.3-.1.4q-.3 1-.3 1.8v1.7l1.4 8 1.5-4.4v.3q.2 1.6-1 6.3l-1.1 4.5-.3 1.3v.1l-.3 5.7.2 5.7h.2q1.1-1.3 1.8-2.6l.1-.2.2 2.4.2-.3 1-1.5q.9-1.6 1.5-2.3l.3-.5.1-.2v.1l.3.5-1.3 3.4q-1.3 3.6-1.3 9.2l.4 12.4q0 6.4-.8 12l-.9-3.8v-.5.2l-3.9-19.8-.8-4.6-1.2-13.4v.2-.1q-.5-1.3-.5-3.5-.4-6.7-.3-14.2.3-7.8 2.2-17 2-9.9 4-13.6 0-.2.4-.5m-4.8-.3q3.4-5.7 5.5-6.5-4.7 9.6-7.1 21.7-1.7 8.6-2.1 16.7-.1 10 .5 16.8l1.2 11.7v.5-.1q-.6-1-2.5-1.9-1.9-.7-3.6-.7-1 0-2 .5t-2 .5q-.3 0-.7-.8-.5-1.2-1.3-2.1-1-1.1-2.5-1.3l-2-.1-1.5-3.6q-1-2.1-1-3.3 0-5.2.8-10l.2-.6q.9-4.8 1.7-4.8l1.6.3 1.3.2q.8 0 1.3-1 .3-.5 1-3 1.8-6.8 4.9-13.2 5.8-11.6 8.4-15.9m-22.5 16.2h.7l3 .8q3.2 1 4.8 2.3-.8 4.9-1.9 7.1-.8 1.6-1.3 1.6-.3 0-.8-.3l-.8-.1h-.8q-.2.2-.3 1l-2 8.4-.4 3.3q-.5 7.3-.7 8v1.4l.8 3.1 1 3.1v.4q0 1-1.3 1.4-1.3.4-4.4.2-1.2-1.5-2-6-.6-3.5-.6-5.1v-1l1.5-9 .1-.3.8-4q1-5.8 1.6-7.4l.4-.8 2-6.3.2-.9q.2-.8.4-.9m-8.3 45 1.1-.8q.5 0 .4.3l-.1.2.7 4 .8 7 .5-.1-.9-6.6-.3-3.3q0-.8.9-1 1.1-.4 4.9-.4 1.2 0 1.7.4.3.1.9 1l.2.1v.2q.2.2.5 3.8l1.5 11.5q1.3 8.6 2.4 14.6 0 .7-.8.7h-4.3q-3.5 0-4.1-1.1-.3-.5-1.2-8.3l-1-8.4q-.2-.4-.7-.6l3 21q2.2 15.5 3.4 22.5.4 2.6.8 4.1v.1l.1.1v.2h.4v-.3q0-1.2-.5-3.9v-.1l-.3-1.7-1.6-9q-1.4-7.8-1.8-11.1l-.3-2.3q0-.5.3-.8.4-.2 1.2-.2 3.5 0 5.5.3 1.4.2 1.8.5l.1.1q.8 1.2 1.5 5.7 1 5.4 1.2 5.8l.5 1.9q.5 1.4.7 1.3-.7-1.5-2-9.4-1.7-9.3-1.7-14.6 0-1.1.6-1.6.6-.6 1.6-.1.2.4.3 1.6l3.5 23.4.3.9.1.9q0 .5-.9 1.1l-.1-.2.5 2.3q.4 2.2.6 2.6l-.1-3h.3l.1.2q.4 1.7 1.4 8.1l1.3 8.1-.1.2-.3.4.2.1q-1.7.6-5.2.6-2.8 0-4.8-.3t-2.4-.6l-.5-1.3-.4-.9 4.7 26.3-.3-.8q-2.7-6-5.3-21.6l-2.3-13.4-1.6-8.8-1.9-12.7-1.8-11.9-3-20.9-.1-1.5q0-.4.3-.6m.2 12 .8 5.3.8 4.7.1 4.3q0 3.2-2.4 4.4h-.1l-1 .5-.6.3h-.1q-.7.4-.7 1v1l1.6 11.8 1 7.9.8 5 .3 2 .2.8.2 1.4q.6 3.7 1.2 5.7l.9 3.4q.8 3.7 3.3 21.6l1 6.5h-.1v.1q-1.7-2-3.3-11.8-3.2-20.3-4.5-26.8-.7.8-.7 1l.2 1.8q.1 1-.2 1.6-.5 1.6-4.4 2h-.5l-.3.1 3.5 13.9q1.1 4.2 1.5 7.2l-4.8-15.8-3.3-23.5v-1q-.3-2.4-.3-5.4 0-9.3.6-11.2.4-1.1 1.3-2l2.3-2v5.9q0 1.8-1.3 7.8l-.6 1.4-.2.5-.3 1.3q-.3 1.4-.6 1.8l.1 3.7H-129.6l1.9.2-2.4-22.1q0-6.3 1.3-10.5 1.2-3.3 3.3-5.9m40.8-27.7q.1-1 2.2-4.1 2.2-3.3 3-3.4l-3.7 5.3-1.5 2.3m-25.1 19.2-.7-.1q-1.2-.2-1.5-1.2l-.3-1-.3-.8q-.5-2.6-1.2-3.4h-.1q-.1.2-.1-.1v-.2l.7-.7q.7-.3 1.3-.3 1 0 1.8 1.8.7 1.6.7 3.5 0 2.2-.3 2.5m4-3 .5-.3.5-.2-1 .5m3.5 1.2.8 2.5 1 3.1.3 2.5q.2 3 0 4.9l-1 2.9-.1.2q-.5.6-1.3.6-1.5 0-1.8-1.4l-.6-4.9q-.5-4.3-.7-8.4 0-.8 1-1.4 1-.6 2.4-.6m1.4 0-.3-.5.4.3-.1.2m99.4-70.4q-2.5 0-4.8-.2l-20-1.2-2.3-.3-2.4-.3-13.9-3.7q-3.4-1.5-4.8-3.5l-.1-.7q-.1-.8.3-1.2.3-.5 1-.5.4 0 6 1.8 5.7 1.6 7.6 1.6l4.1-.3q1.4 0 13.4 2 12.6 2.3 16.6 3.4l1.3.7-3 .6q.3.3 1 .6l.8.5v.5q-.2.2-.8.2M-22.5 35v-.3l.1-.5.3-.8q.5-1.1 2.2-2.2l1.8-1.3h2q.9.3 1.6 1.3 1.4 2 1.4 3.4 0 7.1-3 10.1-.8 1-2.4 2-1.6.9-2.1 1.4 1.8-2 2.4-3.2.2-.8-.4-1.9l-.4-.5-.1-.1-1-1.5-1-1.5-.3-.6q-1-2-1-3.8M-34 48.4l-.7 1q-3.8 4.5-6.1 9.7-1.3 2.9-1.9 5l2.8 2.9q2.5 2.8 2.6 4.3-1.5 1-4.6 2-4 1.1-7.9 1.1L-53 74q-1.1-.1-4.1-1.1l-3.6-1.3h-.2l-1.4-.5q-1.8-.8-3.8-2.2-3-2.1-3.9-3.9v-.3q0-.9 1-1.5.7-.5 1.3-.5 7.3 1.6 8 1.6.8 0 1.2-.3l.6-1.1q1-2.4 3.5-4.4.9-.6 4.5-1.1 3.3-.4 4-.3l1 .8q1.5-.5 6-4.9l4.9-4.8v.2m-45.3-24q.2 0 .3.2.7.6 1.1 1.4l2.7 3.5.5 1-1.4-.6-1.3-.6-.3.3-.4.2-.1.3v.1q0 1 1.3 2.2l3 2.6 2.9 2.5q0 .2.2.3 2.7 2.7 4.1 5.1l-.1-.1v.2l-6.5-4.5-3.9-2.8q-7-5.1-7-7.4 0-.4.4-1.4l.6-1.3h.1q.3-.8.8-.9l1.2-.3.4-.5h.4q.5-.1.8.2l.2.3m4 26.4 3.4 4q-4.8-2.6-6.4-4-3.3-2.8-3.4-6.1 5.1 4.6 6.4 6M-119.8 32q.8.4.8 1.1.1.1-.2 1.9v3.3l.2 1.5.2 2.6q0 2.5-.5 3-.5.6-3.1.3-.4-.2-.8-.7-.5-.8-.6-1.8V43l-.6-3.2-.1-.5-.8-4.3v-.3l-.4-2.1v-.2q0-.5.3-.6l.3-.1q.6-.2 2.3-.2 2.3.3 3 .6m34.4-4.1q1-1.4 1.4-2.3l-1.7 10 .4 2.4v.5l.1.3.3 2 .2 1.3 3.3 11.1q-2.1-3.7-3.8-9.2L-86 41q-.8-3-.8-5.1 0-3.3.5-5.5.1-1.2.9-2.4m-15.4 21.5V49v.6q1.3 8.9 2.3 10.8v.2q.7 1.9 3.3 13.2l2.8 13.2-.1.5q-.7.2-1.2-.1l-2-9.1-1-4-1.8-8.8-2.6-12.6-.3-1.3q0-1.1.3-1.6l.3-.6m22.5-19.3h.1l-.2-.1.1.1m-25.5 5.8.1 1.3.4 1.2-.2-1.4q-.1-.8-.3-1.1m17.3-62-.1-.1.1.2v-.1m-3.5 5.7-.1-.3q-.3 0-.3 1l.1.8h.3q.2-.8 0-1.6M17.5 124.4q-.3 0-.3.3h.1l.2-.1v-.2m8.7-11.5.4-.1.7-.4q-1.9-.8-4.9-3l-5.3-4.1q-6.8-5-9.9-5-.7 0-3.7 1.1l-3 1.2q-1 0-3.1-1.3-2.1-1.2-4-1.2-1.4 0-2.9.9-.8.4-3.5 2.4-6.8 5.1-15.1 9.3 0 .8-.3 1.2-.4.5-2.2.4.2.4.6.6.3.4.8.5.6.2 2 .2 3.3-.1 4.7 1.3l1 .8q4.1 4 6.8 5.6l5.3 3.1.7.5q-.4 1.1-.9 1.1-.4 0-2.7-.9l-5.8-2.6q0 .3 1.2 1.5l1.2 1.3q3.3 1.7 6.3 2.7l.6.2 3.3.8.3.1 5.4.4q3 0 7.5-1.3l.1-.1H8l4.2-1.3 1.6-.5q1.1-.5 1.9-1.3 1-.9 1.5-2.2-2.4.8-4.6 1.9-1.8 1-2.2 1h-.2L9 128q-3.7 1.3-9 1.3-6.5 0-7.6-1l-.1-.1H-8v-.8l.9-.2 3.4.3q2.5.3 4.2.3 4.4 0 9-2 3.3-1.5 6.8-4.1l5.2-4.3q1.3-1 2.3-1.5.9-.4 1.6-.4h1.8l.6-.1h.3v-.1l.6-.3-.1-.2q-4-1.4-5.1-2.5l.1-.5.6.4q1.2.6 1.9.6M3.8 103q-3.1 1.3-3.6 1.3l-.3-.1h.3l2.6-1.4q2.5-1.3 4.9-1.3 2.5 0 8.3 4.5-6.2-4.4-8.4-4.4-.7 0-3.8 1.4m-1.9 13.7q4-3.2 7.8-3.2.8 0 1.8.6l.2.1.5.3q.6.3 1 .8l.3.3.2.7.1.8q0 3.2-3.8 5.4-4.3 2.6-11.8 2.6-1.7 0-3-.8l-2-1q-.7.9-1.3.9-.3 0-.8-.3l-.7-.6v-.2h-.1v-.4q0-.5 2-3.7 2.2-3.3 3.1-3.3l.3.1.4.4.2.3-.3 1.1q-.3 1-.3 1.6.9.6 2 .6.5 0 1.6-1 .8-.5 2.6-2.1M-7 101.4l.8.1H-7q-2 0-4.7 1.8l-4.5 3.3.4.6-1.4.9q-1.4.9-1.8.9-.1.2-1.3.9-.4.3-1 .3.9-1.3 6.2-4.9 5.8-3.9 8.1-3.9m-5.6 19.1q-.3-.4-.6-1.3v-1q0-.7.4-1.5.9-1.6 2.3-2.5-1 1.1-1.6 3.5-.5 2-.3 3l-.2-.2m6-43.2-1.1-1.2q-1-1-2-1.3l1 .6 2.1 2m18.7 2.1h-.4q-3.6 0-6 1.9-1 .8-2 2.4l-1.1 1.5-1 1-.4.2H.7q-2.7.2-4.8-2.8l.1.3q.3.7 1.3 1.6 1.2 1.2 2.3 1.1l-.5.1q-1.9 0-3.2-1.3-.9-.9-2-3.2l-2-4q-1.3-2.3-3.2-3.8l-.6.2-.6.3v.2q.8.6 2.9 1.6 1.8 1.1 1.8 2.8 0 .5-.2.2h-.9q-3 0-3.4.2-1.7.2-2.4 1.6-.1.8-.4 1.3h-.1l-.4.4q0 .2-.3.2-.9 0-2.7-1.9-2.3-2.3-2.3-5.1 0-3.1 1.7-5.5 1.1-1.5 2-2l1.8-.6h.3q2-.4 1.4-1l.8.1.3.2.4.3.4.5.6-3.1.5-2.9v-.2l.1-.1.3-2.1-.3-.1h-.3l-.3 1.5-.2.5-.5 2.7q-.5.8-2.3 1.7l-3.4 1.8q-4.6 2.8-4.6 8 0 3 1.6 5.2 1.8 2.3 5.2 3.4l.2.2.5.3 1.6.5 3 .5 1.8.1h1.6q.8 0 1.3-.7 1.4.8 2.3 1.8.8.5 3.1.5 3 0 4-1 .7-.7 1.3-2 1.5-2.7 6-2.6H14q1.2-.1 1.2-1 0-1-1.6-1.7-1.5-.5-3.3-.5l-1.2.1h1.2l1.8.2m.7-11.8.3.3.3.3q2.5 0 4.2 1 1.1.7 1.5 1.5l.1.2.2.7q1.7 5.3-1.2 9.6-1.1 1.7-2.6 2.7l-1.5.8q3-.8 5-3 2.4-2.6 2.4-6.4 0-3-2.1-5.2-2.4-2.3-6.6-2.5m71.3-37.9-.1.3v-.3m39.3-48.5-2.3 20h.7Q122-.3 123-8.8l1-8.4q0-.7-.8-1.6M96.2-82.5h-.2l-.5-1.5-1.4-2.7q0 2 .7 3.4.6 1.4 1.5 1.4l-.1-.5m.7 2h.1q.1.2.3.2 0-.3-.4-1l-.5-.8q0 .6.3.8v.1q0 .4.2.7m-121 2.4-.1-.8v.5l.2.3m48-12h.1l-3.8-4.2h-.1l3.8 4.3m16-3.3q-.1-.8-.9-2.2l.9 2.2M-116.8 90.5l.5-.1h-.5v.1m235.3 14.3q0 .3.2.5l.2.2-.2-.9-.2.2m-1.8-9.6h.1v-.3l-.1.3Z"/><path fill="#6A6B67" d="M-100.8 49v.4l-.3.6q-.3.5-.3 1.6l.3 1.3q.5 3 2.6 12.6l1.8 8.8 1 4 2 9.1q.5.3 1.2.1V87q-.2-1.8-2.8-13.2-2.5-11.3-3.2-13.2v-.2q-1-2-2.3-10.8V49M-84 25.6l-1.4 2.3q-.8 1.3-1 2.4-.3 2.2-.3 5.4 0 2.1.7 5.2l.8 3.1q1.7 5.5 3.8 9.3L-84.8 42l-.3-1.3-.2-1.9v-.3l-.1-.5-.4-2.4 1.7-10m-35 7.5q0-.8-.8-1-.7-.4-3-.7-1.7 0-2.4.2h-.2q-.3.2-.3.7v.2l.4 2.1v.4l.8 4.2.1.5.6 3.3v.3q0 1 .6 1.7.4.5.8.7 2.6.3 3.2-.4.4-.4.4-2.9l-.3-2.6-.1-1.4V35l.3-1.9m47 21.8q-2.5-3.2-3.4-4.1-1.3-1.5-6.4-6.1.1 3.3 3.4 6.1 1.6 1.4 6.4 4M-78.4 30q.1.1.2 0l.1-.2.4-.3.3-.3-1.6-1.1-.9-.6-1.3-.9-2-1-.6 1.3q-.4 1-.4 1.4 0 2.3 7 7.4l4 2.8 6.5 4.5-.1-.2.1.1q-1.4-2.4-4.1-5.1l-.3-.3L-74 35l-3-2.6q-1.2-1.2-1.2-2.1l-.1-.2-.1-.1m44.5 18.4-.1-.2L-39 53q-4.5 4.4-6 4.9l-1-.8q-.7-.1-4 .3-3.6.5-4.5 1.1-2.5 2-3.5 4.4-.4.9-.6 1-.4.4-1.3.4-.7 0-7.9-1.5-.6 0-1.3.5-1 .6-1 1.5v.3q1 1.7 3.9 3.8 2 1.4 3.8 2.2l1.3.5h.2l5.8-9.7v.1-.1l.1 1q0 1.6-.9 4.5l-1.2 3.4 5.1-5 .3-.2 1-1q2.9-2.7 4.6-3.6h.1q-.3 1.8-2.2 6.5-2.4 6-4.1 6.6h-.8l3.2.3q4 0 8-1.2 3-.9 4.5-1.9-.1-1.5-2.7-4.3-2.5-2.6-2.7-3 .6-2 1.9-4.9 2.3-5.2 6.1-9.8l.8-1M-22.6 35q.1 1.9 1 3.8l.4.6 1 1.5 1 1.5.1.1.4.5q.6 1.1.4 1.9l-2.4 3.3q.5-.6 2.1-1.6t2.4-1.9q3-3 3-10 0-1.5-1.4-3.5-.7-1-1.6-1.3h-2l-1.8 1.3q-1.7 1-2.2 2.2l-.3.8v.8m16-122.5 4.9.2q.6 0 .8-.2v-.5l-.9-.5-.9-.6 3-.7-1.3-.6q-4-1.1-16.6-3.3-12-2.1-13.4-2.1l-4 .3q-2 0-7.7-1.7-5.6-1.7-6-1.7-.7 0-1 .5-.4.5-.4 1.2l.3.7q1.4 2 4.8 3.5l13.8 3.7 2.4.3 2.3.3 20 1.3m-3.3-3.2v.6q-2.3.3-3.5.3-1.5-.1-6.1-.9h9.6m-91.7 73.2.4.4v-.1l-.3-.3m-.3 3-.8-2.5q-1.4 0-2.4.6t-1 1.4q.2 4 .7 8.4l.6 4.9q.4 1.4 1.9 1.4.8 0 1.2-.6V-1q.3-.4 1.1-2.9.2-1.9 0-5l-.3-2.4-1-3.1m-9-4.7q-.2-1.2-.6-1.8l-.6-.4H-113.2q.5 2.7.9 3.9l.3 1q.3 1 1.5 1.2v-3.9m-17.2 51-1.6-.2h-.8l-.8-.1h-3.2l.3 2.5v.7l.5 6.2q.8-1 1.9-1.4.8-.4 1.6-.4.7 0 1.1.3.3 0 .6.4l.4.8q.3.5.3.9-.3.6-1.6 1.3-1.2.6-2.2.6-1-.4-1.7-1v1.3l.3 1.9.6 3.3h.7l.2-.1q3.8-.4 4.3-2 .3-.5.2-1.5v-.1l-.2-1.8q0-.2.8-1l-.3-1.3-.3-.5v-2q0-1.3-.4-2.6-.2-1.1-.5-1.7v-1.5l-.2-1m24.2 1h-.5l.2 3 .3 1.1.2 1.4q0 .9-.2 1.4l-.6.6q-.2.2-1.3.2l-5.1-.4-2 .1-2.4.3-.5-2.2q.4 2.7.4 4v.2h-.3l-.1-.2-.1-.1v-.1l-.8.3-.9-4.6-3.9-21.6q1.6 10.8 2 12.6.6 2.9 1.5 8.9l2.3 13.4q2.6 15.5 5.3 21.6l.3.8-4.7-26.3.4 1 .5 1.2q.3.4 2.4.6 2 .3 4.8.3 3.5 0 5.2-.6l-.2-.1.3-.4.1-.1-1.3-8.2-1.3-8.1M-108 4.8q-.1-1.3-.3-1.7-1-.5-1.6 0-.6.6-.6 1.6 0 5.4 1.7 14.7 1.3 7.9 2 9.4l.1-1.3v-1.1l.3.6q.5.9 1 2.6l.3 1.2.1.2q.9-.6.9-1.1l-.2-.9-.2-.9-3.5-23.4m21.4-31.1-.2.1-.3.5-1.5 2.3-1 1.6-.3.2-.1-2.4-.1.3q-.7 1.3-1.8 2.4l-.1.3-.2 1.9.3 4q.1 2.3.5 5.3.6 5.3 1 6.6v.3l.2-2.3v1.8l-.2.5v.9l.3 2.8V1q.3 2.4.3 3.9l-.1.6v.3l-.2.6-.2.9 1 3.9q.7-5.6.7-12l-.3-12.4q-.1-5.6 1.2-9.2l1.3-3.4-.2-.1-.1-.2v-.2m-3.5 5.8.1.2q.2.8 0 1.4v.1h-.3l-.1-.8q0-1 .3-1M-91.3-36l-.7-1.1-.8 2.2q-1.1-.5-1.9-.2l-1.9.9q0 2.2.5 3.5l.5 1.6q1.1-1.5 1.3-1.5h.5l-.2.2.3.4.4 1.1.1.6.4-1.3.8-3 .2-.3.2-1.3.3-1.8m-.5-17 .1-1 .3-.9.4-2.4q.3-1.7.3-4.2l-.8.8-2 11.2.7-1.6q.5-1.4.9-1.8v-.1m-14.4-16.7q0-.8-1.3-1.8-1.6-1-2.4-1.7l-2.5 5.4-.8 1.8 1.1.8 1.1.7 2.3 1.1q2.5-.5 2.5-6.3m12.2-17.5-.7-.2q-1 2.4-3.5 6.5-2.9 4.8-5 7h.1q.8-3.1 4-8.8l3.5-6.1q-.2-.5-2.3-3.1l-2.9-3.6q-4.5 7.5-7.9 14.3-2 4.1-2.6 4.5l.5 1 .3 1v.4h-.1l1 .2q.3 0 1.9 1.3 1.5 1.4 3.3 2 1.2.5 1.6.5 1.2 0 5.3-7.5Q-94-85-93.6-87l-.6-.3m15.9 18.5q0 .4-.3.6-.3.3-.6.3l.5.6.1.2q1.9 1.8 4.2 3.4l.3.2 1.2.6q3.4 2 7.5 3.4l.7.3q-4-2-8.6-5.4-3.8-2.8-5-4.3m93.7 99.3q-1.3 1-2 2.3-.4.9-.4 1.4 0 1.3 2 3.5 2.3 2.5 5.8 4.4l-1.7-2.8q-1.9-3.5-3.7-8.8M108 82.3v.5h.2v-.5h-.2m-12.6-3.4q-2.1 3.3-2.2 3.8l-.8 4.4q0 .5.5.6H93.3l.3-.2.2-.2 1.7-8.4m-126 35.3q1.9.1 2.2-.5.3-.3.3-1.2-1.1-.5-1.9 0-.6.4-.7 1.1v.6h.1M7.9 130h-.3q-4.3 1.4-7.4 1.4l-5.4-.4h-.3l-3.3-1-.6-.1q-3-1-6.3-2.7L-17 126l-1.1-1.5-1-.7q-.5 0-1.1 1-.6.8-.6 1.3l1 1.2q1.3 1.4 2.6 2.5l.4.4q4 3.2 7.7 3.2 4 0 7.5-.2l6.3-.8.5-.1 4.2-2.1h.2l2.6-1.4L8 130h-.2m1.1-2q-.5-.3-1.4-.2h-.7l-.6-.3 3.4-1.8q-4.5 2-9 2l-4.3-.2-3.3-.3-.8.1-.1.2v.7l.2.2q1.1.8 7.5.8 5.5 0 9.1-1.1m1.3-.6v.1h.2l-.2-.1m8.7-2.2-.1-.8q-.2-.7-.4-.7-.4 0-.8.7l-.4.2q-.4 1.3-1.5 2.2l3.2-1.6m-25.1-23.8-.8-.1q-2.3 0-8.1 3.9-5.3 3.6-6.3 5 .6-.1 1.1-.4l1.4-.9q.3 0 1.6-.9l1.5-.9-.4-.6 4.5-3.3q2.8-1.8 4.7-1.8h.8m6.4 2.8q.5 0 3.6-1.3 3.1-1.4 3.8-1.4 2.3 0 8.4 4.4-5.8-4.5-8.3-4.5-2.4 0-4.9 1.3l-2.6 1.4h-.3l.3.1m29.6 9.3q0-.5-.8-.8-.6-.4-1.6-.4l-.6.3-.6.1q-.7 0-1.9-.6l-.6-.4-.1.5q1.1 1.1 5.1 2.5l.2.2h-.1l.4-.3.4-.4.1-.7m53-49.7q-.5.2-1.7 1.1l-2.3 2.3q-2.9 3.1-5 4.9l-.2.1-3.7 2.4q-6.1 3.7-9.5 4.8-3.9 1.3-9.5 1.3l-4-.1q-8.1-1-16.5-5.8-5.8-3.2-10.4-7.5l-2.8-3-.6-.7-1.6-1.9-1.3-2q-6.1-8.8-8.9-17-.9-2.4-1.5-3-.8-.8-3.1-.8-3 0-4 1.1l-.7 1.1q-.9 1.2-1.8 3.6-1.3 3.8-3.3 7.6-3.7 6.3-9.4 13l-.7.7q-.6.6-.6.8-8.8 7.5-15.9 10.8-6.8 3-14.2 3-10.4 0-17.8-4.7-2.9-1.8-6.9-5.2l-7.6-6.8v.4-.1l1.7 8.8 1.8.6q4 1.6 5.3 5.6l.8 3q.7 1.5 1.7 2.3Q-67 86.3-63 87q3 .4 8.2.4h.9l13.3-2.4 4.1-1.7q3.3-1.5 7-3.9l5.6-3.7.2-.1.3-.3v.1l-.3 2.2-.2 2.1q0 4.2 1.8 7.5t6.2 7.3l.1.1.7.5.3.2h.2l.5.3q1.4.8 2.6.8 3.2 0 5.2-1.8Q-4.5 93-4.9 91q1.3.7 2.6 1 1.1.3 2.2.3l1-.1q2.1-.4 3.8-2.3l1.5-2q.8-1.2 1.5-1.8h.1l1.1-.3 1-.1 2.7.6 2.7.8.8-.1q2.4-.3 4.3-2.7.7-.7 1.7-2.1l.3-.4q.7-.7 1.2-.9l4.3 2.3 3 1 1 .3 4.2 1.3 2.8.5.6.2 3 .4q2.1.3 4.4.3l1.6.1H50q9.1 0 13-1.2l1.6-.6q1-.7 1.2-1.5v-1.6q.2-1.3 1.7-2.3l1.5-.8.5-.1.3-.2 2.7-.8q2.4-.8 4.3-1.7 1.3-.6 2.7-1.8L81 73l.5-2.3.5-2.3.7-4.6M1.2 44.3Q2.3 45 3 48q1.4 5.3 2.3 7.5l.3.5.3.8 1.9 3.3.7 1.3q2.8 4.9 3.5 5.5l.8.7.1.1q4.1.3 6.6 2.5 2.1 2.1 2.1 5.2 0 3.8-2.4 6.4-2 2.3-5 3l1.5-.8q1.5-1 2.6-2.7 2.9-4.3 1.2-9.5v-.1l-.2-.7-.1-.2q-.4-.8-1.5-1.5-1.7-1-4.2-1l.2.1 2.5 3.5q1.6 3 1.2 4.8l-.1.1q-.3.4-.6.5h-.2v.1h-1.1l-2.3-.6-2.8-.7q-1.1.1-2.5.7l-1.5.5-1.6-.6q-.8.3-1.6 1l-1 1-1.6.8q-1 .5-1.8.5l-1-.3-.9-.3h-.5l-1.7-.8-1.1-1.3-2.2-1.9-.9-.7-1.6-.2Q-9.3 76-8 78.3l2 4q1 2.3 1.9 3.2 1.3 1.3 3.2 1.3l.5-.1q-1.1.1-2.4-1.1-.9-.9-1.2-1.6v-.3q2 3 4.7 2.8h.5l.4-.2 1-1q.8-1 1-1.5 1.1-1.6 2.1-2.4 2.4-2 6-2l.4.1q-.9-.3-1.8-.3l-1.2.1 1.2-.1q1.8 0 3.3.5 1.6.7 1.6 1.8 0 .8-1.2.9h-2.7q-4.5-.1-6 2.5-.6 1.4-1.3 2Q3 88 0 88q-2.3 0-3.1-.5-1-1-2.3-1.8-.5.8-1.3.8l-1.5-.1-1.9-.1-3-.5-1.6-.5-.6-.3-.1-.2q-3.4-1-5.2-3.4-1.6-2.3-1.6-5.2 0-5.2 4.6-8l3.5-1.8q1.7-1 2.2-1.8l.6-2.6v-.5l.4-1.5h.3l.3.1q4.9-11.6 7.6-14.7 1-1.1 2-1.4H.9q.2 0 .3.2m-18.4 25V69q-.9.5-2 2-1.7 2.4-1.7 5.5 0 2.8 2.3 5.1 1.8 1.9 2.7 1.9.3 0 .3-.2l.4-.4h-.4.5q.3-.6.3-1.3.8-1.4 2.5-1.6.4-.2 3.4-.2h.9q.2.3.2-.2 0-1.7-1.8-2.8-2.2-1-2.9-1.6l-.2-.2q-1.9 0-3.3 1.8t-1.4 4.3q-.7-.3-1.4-1.5-1.2-1.8-1.2-4.5v-.5l.1-.8q.8-1.8 1.8-3.3l.9-1.3m4.3-1.7h-.8q.6.5-1.4.8l-.7 3.5-.1.6 1.3-.5q1.2 0 2-1t.8-2.4l-.4-.5-.4-.3-.3-.2m2.3-5h.1l-.2-.2v.2h.1m95-36.8q-.2 0-.2.3 0 1.1.7 3.3.6 2 .6 4.3 0 5.6-2 12.3-1 3.6-3 9.3l.2-.3h.1q2-2.3 4-9.3l.1-.5q2-6.8 2-11.8l-.6-3.4q-.7-4-1.7-4h-.2v-.1m-8.8-3.4h-1.1l-1.1-.3q-.8-.4-2.6 1.2-2.1 1.9-4.3 4.5-6 6.7-6.8 11.2v.3q.3-.1 2.4-2.4 2.4-2.3 4-3-.2 1.7-1.6 4.9L58 54l.5.1 7.2-10.8q0-.4-.4-.8-.3-.3-.8-.3l-1.6.5 1.9-4q1.5-3.4 1.4-4.9 1.3-2.4 3.6-5.2 2.5-3.2 5.9-6.3m7.5 4.6-.9-.4-1.5 1.2-3.1 2.4q-1.9 1.5-6.3 6.3l-1.2 1.3 1.2 1.4q.3.3 2.2 1.3l.3.3v.1l.1.2.2.4v1.2l-.5 1q-1.8 4-5 13.3 2-.5 4.6-4.5 1.1-1.6 6.3-10.4.5-1 1.5-1.1l1.5-.3q1.6-.8 1.6-8.4l-.2-2.4v.3-.3l-.3-1.3v-.4q-.2-1-.4-1.2v.1-.1h-.1m-75.5-.6L8 26l-.3.1m39.1-12h1.6q-.3-.3-1.3-.6l-.3-.1-1-.4h-.4q-1.4 0-9.3 1.7-8.8 1.9-11.5 3L9.3 24.4l-1 .4q-.2.2-.2.6v.2l.6.4q1.2 0 5.8-2l9.9-4.5Q38 14 46.9 14.1M125.3 33q0-1.8-2.9-1.8l-1.3.2q-1.7.6-2 3.8v.6l-.2 3.6q-.5 2.9-.3 3.9 0 .7.3 1.4h.2q1.1 1.2 2.2 1 1.4-.2 1.8-1 .3-.4.7-2.5l1.5-9.3m5.4-1.4H130.5l-.6.1h-.5l-1 1-1 .9v.1q-.2.3-.3 1l-.1 1-1 6.4h.2q.5.5.7 3 .1 2.4 1.2 3l2.8.8.7.2q.3-.5.7-2 .3-1.6.3-2.5 0-.4-.2-.7-.6-.6-2.2-.8-1.8-.1-2-.3l-.4-.6v-.3l-.1-.8q0-.5.3-.7.4-.4 1.8-.5 1-.2 1.8 0 .7.3 1.3.8.6-7.3.6-8.8l-2.7-.3m-16.3 20.4 2.3-12.3-2.3 12.3h-.7l-.9 4.4-.9 4.4-.1.6v.3l-.2.6-2 11.6-1.3 6.5q1.6-2.8 3.3-11 1.6-7.4 2.8-17.4M103 40.7q.4 3.2-1.2 6.6-1.8 3.8-1.8 7.4l-1.2 6.6-.2.1v.3l-.1.5.1.4.1.1v.2l.3-1.4.2-.1v-.2l.6-2.4q.5-2.1.6-3.9v-.3q.1-1 .4-1.7.6-1.8 2.2-2.4 1-.5 2.5-.5l2.6.2 1.8.1q2.8.3 4.2-.1v-.1l.5-.1q-.2-.9 0-2.3l.3-1 .1-1.9q-.4-.9-.4-1.3l.3-2.7-2.2-.2q-5.4-.1-9.7.1m7-35.8q-.3-.7-.8-1.3-.5-.5-1.5-1.1l-2.2 15.1q-1.3 9.6-2.7 17.5l-.6 3.3v.5l.3.1h.4l.4-.3.1-.4.3-.8.5-1.7q.1-1 1.3-4.8l1.5-6q.5-1.8.8-2.1l.8-4.2.9-6.3q1-6.2.5-7.5M120.5 9q.7-2.3.8-3.8l.4-4h-.8l-.4 2.3q-.3 5.2-.5 5.5h.5m-20-25.8v.2q-.5.9-.5 1.4l.1.8.1-.2.3-.4v.1h.1l.1.3q0 .3-.2.4h-.1q-1 4.9-1 7.5 0 4.3.3 5 .3.6 1.1.7 2.3.2 3.7-4.2l.6-2.1q1.2-4.9 1.2-9.3 0-1-.8-1.5-.8-.7-2.5-.7-1.3 0-2 1 1-1 2-1 2.5 0 3 1.5.4.9 0 2.9l-1.3-1.6q-1.1-1.1-2.3-1.1-.5 0-1.4.3h-.5m12.8-48.5q.2.7 1.2.7-.9-.3-3-4-2-3.5-2-4.1 0-.6.3-1l-2.5 2q-2 1.5-2 2.1 0 .6.5 1.8l1.2 2q.3 0 1 .8l.8 1 2.2-.3q1.4-.4 2.3-1m1.1 2.5h-.2q-2.7.5-3.7 1-1.7.5-1.7 2.3 0 .4 1.2 3.9 1.2 3.6 1.7 4l.3-.1.5-.1.8-.3q1.8.7 2.7 4.8.6 3 .8 7 .7.9 1.5 10.6 0 1.9-1 3.2-1 1.6-1.3 4.1.5.3 1.4.4l1 .2 3.4-.1v-6l.2-1.2h.3q.4.1.8 0v-.8l-.1-2.7-.3-3.5-.5-3.4q-.8-5.5-2.2-10.9-1.7-6.7-3.3-9.9l-.2-.2q-.8-2-2.1-2.3m-25 10h-.2.1m1.2 2.3-.8-1.3-.2-.1q0 1.5.5 2.4.6 1 1.3 1v-.2l-.8-1.8m-1.7-20.4v.3q0 .5 1.7 4.1Q92-62.4 92-59l-.3 2.5-.2 2.9.2 1.8.3 1.8q0 .5-.3 1l-.1.1-.1.2-.3.3.4 8.9.2 7.6q0 1.4-.6 2.3-.7 1.2-1 3.3l-.1 3.1v2.6q-.4 0-.9-.3-.6-.5-.8-.5h-.1l.3 5.3.1 3L88.3.4v8q0 .8 1 .8l.4-.1.1-.3 2-8.3V.5l-.2-.3-.3-.3-.5 1.3-.5 1.2q-.3-.1-.4-1.4-.2-1.4-.2-3.5 0-2.8.5-5.8.5-2.8.9-3.3v-.1l.1 6 .1 4.9.7-.6.7-2.9.1-.9.2-1 .3-2.5.6-5.9v-1.1q0 .2-.3.3-.2.2-.5.2-.6-.9-.8-3v-3.4q0-6 .5-7l.7-.6q.4-.4.7-1.2l1.1.6.4-.8.3-1.3.2-1.4q0-.9-.3-1.9v-.1q-.9-.5-1-.7l-.7-3.6q-.4 1.2-.8 1.3-.4.1-.7-.5-.3-.5-.4-1.3v-1l.4-9.4.1-2.2-.2-1.6.4-1.7q.5 2.8.8 6.3l.1.6q0-2.3-1-9.6l-1.4-8.5-1.3-2q-1-1.5-1.4-1.7m21.5-5.8h-.1q-.4-1.8-4.4-9.3-4-7.8-5.4-9.1l-5.6 6.4q1.7 3 5.4 8.6 2.8 5 2.6 8.7l-5-7.8-.8-1.2h-.1v-.1h-.1l-.1-.7h-.2l-.3-.8q-.9 0-1.5-1.4-.7-1.4-.7-3.4l-.1-.5-.3-.2q-.5 0-.8.3-.3.4-.3.9l4 7.5q4.3 7.4 5.8 8.5 8.6-3.4 8-6.4M.3-77.5h.5l-15.7 1.7q-9.2.8-15.4.8l-7.7-.5q-6.4-.7-7.6-1l.2.2-.4-.1q5.7 3.3 9.1 4.3l1.1.3h.3l.3.3.1.3q0 .4-.2.6l-.2.1-.1.2h-1.5l-14.5-1h.1l.2.3q2.8 1.7 11.8 2.8l5.1.7q4.5.4 5.5 0 .5-.1.3-.2-.3-.3-.3-1.1v-.4h.2l2 .2 1 .2h1.1q-.3-.3-1.6-.6-1.5-.3-1.8-.5l17.4-.9q2.4-.2 24.4 0L14-71l-1.4-1q-1.3-.8-1.6-1.3l11.6 1.4 9.3 1q-.9-2-10.4-4.9-10-2.7-11-3.1h-.3l2.7.1 1.5.1q.5-.7.5-1.2 0-1.7-9.8-2.7-7.2-.7-14.2-.7-2.9 0-10.1.5-7.2.4-12.3.4-3.4 0-8.6-.5l-8.8-.8.2.2-.3-.1q5.8 3 12.1 4.1l11 1.5.5-.1 1.3-.1-.2-.3v-.8h2.5l3.6-.1 2.7-.1 2.4-.1q5.4-.3 9.4-.3 6 0 7.2.5l-4.2.8-.1.1q0 .4.6.7.2.2.6.2m4.4.5 1.7-.1q1.3 0 3.3.3l2.5.3.6.2q2 .5 4.5 1.6l2.5 1H19q-1.7.3-7.6-1.4l-6.7-2m-3 2.8q5.4.9 7.5 1.8l-10.5-.6q-9.9-.6-15.4-.6l-3 .1q5-1.6 12.7-1.6 3.3 0 8.8 1M-77.3 4.5h-.1M-48 11h1.3l1.8.2.4-.1 1.5-.1h.1l-1.6-.7-12.6-4.8q-8.8-3.1-13-3.1-1.5 0-3.8.8-1.8.5-2.5 1-.2.2-.8.3l-.5.4.4 1.6q.3 1.2.3 1.9l-.2.8-.2.8.2.4.5 1.1.5.3q.1.2.3.2H-75.7l8.2-.7q6-.4 13.5-.5h1.5l3.8.2h.6m99-.3q1.1 0 1.5-.3.8-.3.8-1.3 0-.8-1.5-2.1l-12 4.2 3.7-.1 3.5-.2 3-.2h1M40.5-61.5l6.4.4 3.4.3 1.5.2 6.3 1q9.4 2.1 14.5 5.7 4.4 4.3 5.8 7.2L79-45q.3.6.8 1.1-.2-4-3-7.6-3-4-8.8-7-8.5-4.3-21.1-6-8-1-17.8-1-9.6 0-23.7 1.2-14.6 1.2-23.1 2.8-6.4 1.2-13 3.6-8 3-13.3 7-4.8 3.6-14.9 7l-7.4 2.5q-1.7.6-3 1.3-8.7 5.4-10.8 7.4-2 2-3.8 6.7 0 .8.4 1.6 2.3-3.8 5-7 5.3-6.4 11.3-7.1l6.3-2.1 9.1-3.3 2.3-1q2.8-1.3 7.1-3.6l1.6-.9Q-35.6-52-33-53q4.9-1.9 9.9-3.1 3.5-1 6.8-1.6 5-.9 9.5-1l2.2.1h2.9l3.5-.3 2.1-.2 9.2-1.1L21-61l7.9-.5 4.9-.2q3.5 0 6.8.2m44.2 17.8v.4l.2-.4-.2-.3-.2.2q.2-.2.2 0m-3.5-3.7-.3.3.2.3q.1 2 1.5 4.8 1.2 2.4 2.3 3.3v-.9q0-1.2-1.3-4l-1.4-2.9-.8-.6v-.1l-.3-.2M77.8-57l-1.8-.1-2.9.1 1.5 1.1q2.2 1.5 3.4 2.8.7.4 1.7 1.8l.9 1.2q1.2 1.7 1.7 3.3l.1.2q.5.3.9.9.4.7.8 1l.4.9.1-.2v-.5l-.1-1-.2-1.3-.7-1.4-1.2-2-1.8-3.1q.6 0 2.1.6l1.4.7.6-.2q.3-.2.3-.5l-.1-.4-.6-1-.2-.2-.2-.2q-1.1-.9-3.8-1.9l-2.3-.6m.1-5.9q-1.7 0-4.1.7-2.4.8-3.2 1.6V-60.4l-.1.1v.2q0 .3.3.6h.1q.5.2 3.2.2h2.8l-.3-.6-.2-.5q0-.3 1.4-.7 1.6-.5 2.2-1.7l-2.1-.2M53.5-93.6l.1-.9q.4-2.1-1.1-3.5-.8-.8-2-1.5.3 1.8 1.4 3.5l1.6 2.4m15.7-.3-.4-.3q1.2 4.4 1.5 7.9.4 2.7.4 6.5 0 4-.6 9.5l.4-.5L72.7-81l-.4-3.8q-1.2-5.5-1.8-7l-1.3-2m-7-18.3 6.6 11.3q3.8 6.7 5.5 12.6.5-1 .7-3.6 0-5-3.2-11.2-3.8-7.4-9.5-9.1m-8.6 2.8.1.4.3.6-.1.3-1-1.1-1.7-1.1-.1.2-.1.8q9.4 14.9 10.1 16.5v-.8q-.2-2.7-.8-5.2l.8.4.9.8.3.3q.9 1 1.5 2.5.4-3.4-2-9.8-2.3-6.3-3.9-6.7 3.7 9.1 3.8 10.8l-.4-.8-1.1-1.7q-1.4-1.5-3.4-4.3-1.7-2-3.2-2m-9 5.8.1.2q-.1-.6-.1.4 0 .9 4 6.7 3.8 5.6 4.6 6.3.8-2.6-2.6-8.2-3.3-5.5-5.4-5.5l-.5.1m0-4.7.1.3q-.1.8.2 1.1l12.4 11.9q-.9-7-6.5-10.9-2.9-2-5.6-2.6-.6 0-.5.2m-7.4-9.8q1 0 .6-.1l.6-.3-5.5-2.9-6.7-2.1q.1 0 0 0 2 .8 7.5 8 5.9 7.8 9.4 14.8-.3-1.6 0-1.4l.8.7-5.5-9.5q-1.8-3-5.9-8.3h.2q2.5 1.3 4.5 1.2m-9.8 17.5q5.7 5.8 6 7.3 1.1 1.3 1.6 1.5l1.8.5v-.2q-.3-1.3 0-1.6l3.6 2.1 2.7 1.4q1 0 .9-.8 0-.5-1.5-2.8-1.9-3-4.4-4.9v1l.6 1.3q.8 1.4 1 2.2h-.1l-6-3.9q-4.3-2.8-6.1-3.1M10-113.5q-3.5-1.7-6.5-1.7-4.5 0-8.9.9-1.8.3-7.6-1.3l-.7.5q.6 1 4.6 3.3 3.9 2.1 6.2 3l-4.6.5q-2.7.2-3.7.1l1 .4 3.6 1.1q1.8.7 2.4 1.4l-.1.6q-1.2.3-2.2.3l-4.2-.1-6.5-.5-8-.8 2.5 2 4.2 2.6.8.5h-.2q-6.6.2-16.6-2.5-8.6-2.3-12.6-4.5v.1q2.3 3.5 13.6 7.6 9.1 3.4 18.1 4.7l6 .7 5 1q9.8 2.4 19.3 6.3 6.6 2.8 9.5 2.8 5.5 0 7 .3 1.6.5 6.4 3.7l.3.1.1-.1.5-.6q-.6-1.3-3-3.8-2.6-2.4-3-3.5l.4-.6 3.1 1 .6-.2q-2.4-2.8-8-5.5l-.8.9-.2.3-7.6-1.8L24-90h-.1l.2.3v.5q0 .3-.7.3-6.8 0-18.3-3.6-11.7-3.7-18.3-7.9l-.4-.4 4.8-.1 6.6.3 12.4.6q-3.6-1.4-10.4-3.2.4 0 0-.1 2 0 8.9 1.5 8.6 1.8 13.3 4l.4-.5q-.3-.5-2.3-1.9-2.8-2-5.7-4.6l5.3 1.1 3.3 1.2-.3-.8q-.2-.5-.1-.8l.2-.2q.3-.3 1-.3.4 0 1.3.4.8.4 1.3.4 1 0 .9-.3v-.7q-9.6-4.6-17.3-8.7m.2-7.8 1.6-.8q1-.3 1.8-.3 5.3 0 11.4 3.7 6.6 3.9 6.6 8.2 0 .3-.3.6l-1.1 1 5.8 5.4.6-.2q.8-.8.8-1.8 0-2-4.3-7.6-4.5-6.1-11.3-10.3l-4.4-2.3 2.3 2.2-15.3-1.8q-4.6 0-8.2.6l-3.6.5.3.2q4.5 2.3 11.6 4.4 6.8 2 9.6 2 .6 0 .6-.2v-.2q-.2-.2-2.2-.8-2-.9-2.3-2.5m27.7-25.4-.5-.3-.5.4q-.3.3-.3.5 0 2 3.1 4.8 2.3 2.4 4.3 3l.9.3-5.6-7.3-1.4-1.4m-121.8 37.2q-1 .5-3.5 3.5-1.4 1.5-5 6-2.4 3-3.3 4.4-1.2 1.8-1.3 2.8l.1.3.3.4.3.3.1.1q.2 0 4.2-5 5-6.1 9.8-12.7h-1.7m41.5-33.3v.2l-1.8 2.4q-1.5 1.8-1.8 2.5v.6h.1v.1l.4.1.5.1.2-.5.8-.5 1-.6.3-.3q-.2 0-.3-.2l-.1-.2-.1-.1v-.3q3.2-2.4 4.7-4.3h-.9l-1 .2q-1.1.3-2 .8m124.3 31.1-.1-.1q-.7 0-1.8-.9l-.7-.6q-1.6-1.6-3.1-2.3h-.3l-.3.3h.4v.4q.5 1.1 3 3.3l2.5 2 3.8 4.1q3.7 4 5.4 6.3 3 3.8 4.5 6L96-92l.5-.1.1-.1v-1l-.5-1q-6.1-7.9-10.8-13.4l-1.8-2.3-.7-.2-.5-.5-.3-1Z"/><path fill="#ECCBA2" d="m-79 24.6-.3-.3-.3-.2q-.3-.3-.7-.3h-.4l-.4.6-1.2.3q-.5.2-.8.9l1.9 1 1.3.9.9.6 1.7 1.1q.3.3 1.2.7l1.4.7-.5-1.1-2.7-3.5q-.4-.8-1.1-1.4M-45.9 61q-2.6 1.7-4.6 3.5l-1.1 1.1-.3.2q-2.8 3-5.1 5.2v-.2q.8-1.9 1.2-3.4.9-2.9.9-4.5v-1l-.1.1-5.7 9.7 3.6 1.2q3 1 4.1 1.1l.8.1q1.7-.6 4.1-6.6 1.9-4.8 2.2-6.5M-9.6-90v-.6h-9.6q4.6.8 6.1.8 1.2.1 3.4-.2M-111-21q.4.5.5 2v3.8l.7.1q.3-.3.3-2.5 0-2-.7-3.5-.8-1.8-1.8-1.8-.6 0-1.3.3l-.5.6-.2.2q0 .4.1.2h.1l.1.2h.8l1.2.1.7.4m26.3-13.6 1.5-2.1 3.7-5.3q-.8.1-3 3.4-2.1 3.1-2.3 4M-133 24.3l.6-1.4q1.3-6 1.3-7.8V9.2l-2.4 2q-.8.9-1.2 2-.6 1.9-.6 11.3 0 3 .3 5.4v.9l3.3 23.5 4.9 15.8q-.5-3-1.6-7.2L-132 49l-.7-3.4-.3-2 .1-1.1q.7.6 1.8 1 .9 0 2.1-.6 1.3-.6 1.5-1.3l-.2-1-.4-.7q-.3-.4-.6-.4-.4-.3-1.1-.3-.8 0-1.6.4-1.1.4-1.9 1.4l-.4-6.2-.1-.4V34l-.3-2.5v-3.7q.2-.4.4-1.8l.4-1.3.3-.6m8.3-25.6-.8-5.3q-2.2 2.6-3.3 5.9-1.3 4.1-1.3 10.5l2.4 22.1v.1l.2 1v1.5q.3.6.5 1.7.3 1.4.3 2.5v1.7l.1.5.3.4.3 1.3q1.3 6.5 4.5 26.8 1.5 9.8 3.2 11.8V81l-.9-6.5q-2.5-17.9-3.3-21.6l-.9-3.4-1.2-5.8-.3-1.4-.1-.6v-.2l-.3-1.9-.8-5-1-7.9-1.6-11.8v-1q0-.6.7-1h.1l.7-.3.9-.4.1-.1q2.4-1.3 2.4-4.4 0-3.3-.3-4.8l-.6-4.3m5.2 15.5.3 2.4q.4 3.4 1.8 11.1l1.6 9 .3 1.7v.1l.6 2.2 2.4-.3h2l5.1.3q1 0 1.3-.3l.6-.5q.2-.8-.1-2.1l-.3-2q-.2-.4-.6-2.6l-.5-2.3-.3-1.2q-.5-1.7-1-2.6l-.3-.6v1.1q0 .8-.2 1.3-.1.1-.6-1.3l-.5-1.9-1.1-5.9q-.8-4.4-1.6-5.6V14q-.5-.3-2-.5-2-.3-5.5-.3-.8 0-1.1.2-.3.3-.3.8m-5.2-33.6-1 .8q-.3.3-.3.6l.1 1.5 3 20.9 1.8 11.9 3.9 21.6.9 4.6.8-.3-.8-4-3.5-22.6-2.9-21 .8.6 1 8.4 1 8.3q.7 1 4.3 1.2l4.3-.1q.7 0 .7-.7-1.1-6-2.4-14.6l-1.5-11.6q-.3-3.5-.5-3.7v-.2l-.2-.1q-.5-.9-.9-1-.5-.4-1.8-.4-3.7 0-4.8.4-.9.3-.9 1l.3 3.3.9 6.6h-.5l-.8-6.8q-.5-3.3-.8-4.1h.1l.1-.3q.1-.2-.4-.2m7.9-44.3-.8.1-.3.9-.3 1-1.9 6.2-1.3 4.8-.8 3.4-.7 4-.1.3-1.5 9v1q0 1.6.5 5 .9 4.6 2 6.1h.1q3 .2 4.5-.2 1.3-.3 1.3-1.3l-.2-.5-.9-3.1-.8-3v-1.6q.3-.6.7-7.9l.3-3.3q1-3.4 2.1-8.4.2-.8.4-1h.7l.8.2.8.2q.5 0 1.3-1.6 1.2-2.3 2-7l-.1-.1q-1.6-1.3-4.8-2.4l-3-.8m26.6 60.3q.3-1 .1-1.9l-.2 2.3.1-.5m-1.6-29.2-.2.2-.8 3-.4 1.3-.1-.7-.4-1.1q-.3-.4-.6-.5-.7.6-1.3 1.5l-.5-1.6v-.1l1.3 13.3.7 4.6L-90.3 7l.1-.2.2-.5.2-.6v-1L-90 .9V.7l-.3-2.8v-1.2q-.4-1.3-1-6.6-.4-3-.5-5.3l-.3-4 .2-1.9v-.2h-.1l-.3-5.7.5-5.7m1.8-47-.7.7q-2 3.7-4 13.7-1.9 9.1-2.2 16.9 0 7.5.3 14.2l1.9-.9q.8-.3 1.9.2l.8-2.2.7 1.1 1-4.5q.8-3.6.8-4.4v-.3l-1.5 4.4-.9-3.2q-.6-2.8-.6-4.9v-.9l.1-.6q0-1 .3-1.9l.1-.4.1-.2q-.4.4-.9 1.8l-.7 1.6v.1l2-11.3q.4-.5.8-1.8l.6-2.4 1-2.7.3-.9-1.5.4h-.1l-.6-.4q-.2.3-.2 0V-68.8q.1-1.5.8-4.7l.6-3.3v-1.4l-.2-1.5m-20 6.5-.7-1-1.5 2.1-1.5 3.3-.4 1.1q0 .3-.2.5v.3l-.3.8-.8 2.2q.7-.3 1.3-1.1l.8-1 .8-1.8 2.5-5.4m15.3-14.2q0-.6-.3-1t-.7-.4l-3.5 6.1q-3.2 5.7-4 8.8 2-2.3 4.9-7 2.5-4.1 3.5-6.5m-6.1-8.1-.3-1.2q-.4-.6-1.1-.8-3.6 5.7-6.6 11.5-3 5.9-3 7.2 0 .6.3 1.6l.2.5q.6-.4 2.6-4.5 3.4-6.8 7.9-14.3m13.9 6q-.3-2.4-.9-4.3l2 14.5 1.4 3.5.7 1.3.6 1.3.6 1 1 1.5.3.4.8 1 .2.3.1.2 1.1 1q.3 0 .6-.3t.3-.7q-6.6-11.5-8-16.8-.5-1.4-.8-3.9M10 85.7l-1.1.1-1 .3h-.2q-.7.7-1.5 1.9l-1.5 2Q3 91.8.9 92.2l-1 .1q-1.1 0-2.3-.3-1.3-.3-2.5-1 .4 2-1.4 3.7-2 1.8-5.2 1.8-1.2 0-2.6-.8l-.6-.3-.4-.2-.7-.5-.1-.1q-4.5-4-6.2-7.3Q-24 84-24 79.8l.3-2.1.2-2.2-.3.2-.2.1-5.6 3.7q-3.7 2.4-7 3.9-2 1-4.1 1.7l-13.3 2.4h-1.8q-5.3 0-9.1-.8-3.6-.7-6.7-2.2-1-.7-1.7-2.2l-.8-3q-1.3-4-5.3-5.6l-1.8-.6.5 3 .3 1.6v.5l.8 5.9q-.2 15.2 17 34.1 6 6.6 12.1 11.8l5.5 4.4 10 8.8q6.3 5.6 10.5 8.7 12.9 9.4 24.1 9.4 14.3 0 27.2-10.6 3.5-2.9 9.6-9 5.5-5.4 8-7.3l2.4-1.8 3-2.6q2.4-2.1 5-4.7 6.4-6.5 7.4-7.3 2-1.8 4.8-5.7 3.3-4.5 6.1-10Q80.5 87.5 81 73l-1.5 1.7q-1.4 1.2-2.8 1.8-1.8.9-4.3 1.7l-2.6.8-.3.2-.5.1q-.9.4-1.5.9-1.5.9-1.7 2.3V84q-.1.8-1.2 1.5L63 86q-3.9 1.3-13 1.3h-1.5l-1.6-.1q-4.1-.2-7.4-.8l-.6-.2-2.8-.5-4.2-1.3-1-.3-3-1-4.3-2.3q-.6.2-1.2.9l-.3.4q-1 1.4-1.7 2.1-1.9 2.4-4.3 2.7h-.9l-2.6-.7-2.7-.6m19.1 27q.8.4.8.9l-.3.8-.3.3-.4.3-.6.3-.3.1-.6.1h-1.9q-.6 0-1.5.5-1 .5-2.3 1.5l-5.2 4.2q-3.4 2.5-6.8 4l-3.4 1.8q.5.3 1.3.3 1 0 1.3.2l1.4-.4v-.1l3.2-1.4q3-1.4 3.8-1.5 0-.3.3-.3v.2q.5-.7.9-.7.3 0 .4.7.1.5 0 .8l-3.1 1.6q-.8.8-2 1.3l-1.5.5-2.6 1.4-4.3 2.2h-.6l-6.3.8q-3.6.3-7.6.3-3.9 0-7.9-3.2l-.1-.1q-3-2.5-3.6-4.1 0-.5.6-1.3.6-1 1.1-1l1 .7 5.9 2.6q2.2.9 2.6.9.5 0 .8-1l-.5-.6q-1.1-.5-5.4-3.1-2.7-1.7-6.9-5.6l-.9-.8q-1.4-1.4-4.6-1.3-1.5 0-2.1-.2-.5-.1-.9-.5-.3-.2-.5-.6l-.1-.6q.1-.7.7-1.1.8-.5 1.9 0 8.3-4.1 15.1-9.2l3.5-2.4q1.5-.9 2.9-.9 1.8 0 4 1.3 2 1.2 3 1.2l3.1-1.2q3-1.1 3.7-1.1 3.1 0 9.9 5l5.3 4q3 2.3 4.9 3.1l.1.1q1 0 1.7.3m-42.3 6.5q.3.9.6 1.3l.2.3q-.2-1.1.3-3.1.6-2.4 1.6-3.5-1.4.9-2.3 2.5l-.4 1.5v1m23-5.5q-3.9 0-7.8 3.1L-.5 119q-1.1 1-1.6 1l-1-.2q-.9-.2-1.2-.6 0-.6.3-1.6l.3-1-.1-.4-.5-.4-.3-.1q-.9 0-3 3.3-2.2 3.2-2.2 3.7l.1.4.1.2q.3.4.7.6.5.3.8.3.6 0 1.3-.9l2 1q1.3.8 3 .8 7.5 0 11.8-2.6 3.8-2.3 3.8-5.5l-.1-.8-.2-.6-.3-.3q-.4-.5-1-.8l-.5-.3-.2-.1q-1.1-.4-1.7-.4M2.9 48q-.8-3-1.6-3.8l-.4-.3-1.6.1q-1 .3-2 1.4-2.8 3.1-7.5 14.7l-.4 2.1v.1l.1.2h-.2l-.5 2.9-.6 3.1q0 1.5-.8 2.5t-2 1l-1.3.5v-.1l.2-.6.6-3.5-.3.1-1.8.6v.2l-1 1.3q-1 1.5-1.7 3.3v.8l-.1.5q0 2.7 1.2 4.5.8 1.2 1.4 1.5 0-2.5 1.4-4.3 1.4-1.8 3.3-1.8h.2l.6-.3.7-.2 1.5.3q1 .3 2 1.3l1.1 1.3 1.1 1.3q.4 0 1.8.6l.4.2.9.3 1 .2q.7 0 1.8-.5l1.6-.8 1-1q.8-.7 1.6-1l1.6.6 1.5-.5q1.4-.6 2.5-.7l2.9.7q1.2.4 2.2.5l.8.1h.3l.2-.1q.3-.1.6-.5l.1-.1q.4-1.9-1.3-4.8-.6-1.1-2.4-3.5l-.2-.1-.3-.3-.4-.4-.8-.7q-.8-.7-3.5-5.5L7.6 60l-1.8-3.2-.3-.8-.3-.5q-1-2.2-2.3-7.5m79.3-23.4H82q0-.2-3-1.2-3.1-.8-3.3-1.1h-.1q-3.4 3.1-5.9 6.3-2.3 2.8-3.6 5.3 0 1.4-1.5 4.8l-1.9 4h.1l1.6-.5q.5 0 .8.3.4.4.4.9l2.5-3.2 2-2.5 1.3-1.4q4.3-4.6 6.2-6.1l3.1-2.5 1.5-1.2.9.4q0-.6-.4-1.3l-.6-1M7.9 26.1l.3-.4-.1-.3-1.1.2-3.8.3-5.7.4L-7 25l-.8-.1-1.5-.5-3-.8-3.6-1.7-4.1-1.8q-11.9-5.4-26.3-7l-12.9-.2-8.1.4-9.2.8-7.8.8-3.8.5h-.3l1.7.9q1.2.5 1.8.5 1 0 11.7-1.2 12-1.2 19.4-1.2 4.7 0 9 .4 5.5.5 10 1.6 5.6 1.4 11.8 4.3 7.5 3.5 9.6 4.3 5.7 1.9 12.6 1.9l6.5-.1q2-.3 2-.6l.3-.1m74.3-9.6.3.3h1.5q.9 0 1.6-.2 1.3-.3 2.3-1.3l-13.3-1.2-9.2-.8-19.6-.2 1 .4.2.1q1 .3 1.3.7 5.5-.6 21.1.8 11 1 12.8 1.5m50.5-5.9-.3-.2q-.8-.4-1.2-.9-.2.3-.4 2l-.1 3.5q0 4 1.6 8.4 1.5 4.4 1.5 5.6v1.2l-.4 1.6q0 1.5-.6 8.7-.6-.5-1.3-.8-.8-.2-1.8 0-1.4 0-1.9.5-.2.3-.2.7v.8l.1.4.4.5 2 .3q1.7.1 2.2.8l.2.8-.3 2.4-.7 2q-.2 2.8-2.2 9.3-2.3 8-3.2 12.3h.1q.7-.8 1.7-3.8l.3-1.1q3.6-9.5 5.4-20.7 1.7-10.2 1.7-20.3l-.1-.9v-2.6l-.1-2.6v-.8q-.1-2.5-.4-4l-.4-1.1q-.3-.8-1.6-2m-4.4-11.8q-1.9-4.7-2.9-5.5-1.2 2.4-1.6 6.1-.5 3.1-.5 7.9 0 1.3.5 2.4.3 1.1 1 1.6l1.3.6q1.3.4 1.5.7.3.4.5 1.3l.3.8q0 5.6-5 32.5-5 27-5 31.6v1l.3 1.1v-.1l.1.2q1.1-2.1 3.3-16 3.1-18.9 4-23l-.2-.1 1-6.5.2-.9.1-1 .1-.1q.8-4.7 1.4-9.5 1.3-9.3 1.3-19.8 0-1-1.7-5.3m-9.5-17.8q-3.7.5-4.3 1.5l-1.5 11.7q-1.3 10.4-2 13.2 0 .6-.8 3.2v.7q0 1.5 2.1 1.5 4.7 0 6.1-.6 1.8-.8 1.5-3.3.2-.3.5-5.5l.5-2.3 2.3-19.9q.7.8.7 1.4l-1 8.5q-1 8.6-1.3 10l-.4 4q-.1 1.5-.8 3.8L118 26.6q-2.3 14.9-3 18.1-.3-.6-.3-1.3l1.3-7.9.8-6.3.4-2.4v-.3l1.9-12q0-.3-.6-.9-5-.7-7.1-.2-1.7.4-2 1.9l-.2 2q0 1.2-.2 1.3l-.5 2q-.3 1.8-.7 2.3-.3.3-.8 2.2-.4 2-1.5 5.9-1.2 3.8-1.3 4.8l-.5 1.7-.3.8-.1.4-.3 2q4.3-.2 9.7-.1l2.1.2-.2 2.7q0 .4.5 1.3l-.3 1.9-.1 1q-.3 1.4-.2 2.3l-.3.1-.1.1-.3 1.6h.7l2.3-12.2 1.5-7.5 1.5-7.3L123 1.7l1.5-11q1-7.2 1-8.1v-.5l-.3-.8h-.1q-.3-.6-1-.6-2.5 0-5.1.4m-14.4 54.8.2.3-.2-.3m8-58.3-1.1-.4q-1.1 0-1.7 1.6-.5 1.3-.5 3.1l.2 3.6q.4-.8.8-2.6l.6-2.8q.9-3 3.3-1.8-.6-.4-1.7-.8M101-17.8l-.5 1h.5l1.4-.3q1.2 0 2.3 1.1l1.3 1.6q.4-2 0-2.9-.5-1.4-3-1.4-1 0-2 .9m7-47.2q-.7-.8-1-.8l.2 1q.2.8.5 1.2l.4.3.8-.7-.9-1m6.5.4q-1.5-3.4-2.8-7.6-.7-1.8-1.3-1.8h-.3q0 .2-.2.2-.5.5-.5 1.1 0 .6 2 4.1 2.2 3.7 3 4m1.5 38.1-.3 1-.1 1 .5 2.2q.3-2.6 1.3-4.2 1-1.3 1-3.1-.8-9.8-1.5-10.8l.2 5 .3 4.9q0 .8-.4 2.1l-1 2m-.6-36.9-1 .5h.1q1.3.3 2.1 2.3l.2.3q1.6 3.1 3.3 9.8 1.4 5.4 2.2 11l.5 3.3.3 3.5.1 2.7v.8q-.4.1-.8 0h-.3l-.2 1.3V-22l.2-.3.2-.3.1-.9 1.2-5 .5-2-.2-1.6-5.4-27.7-.7-2.2-.5-1.1-.5-.5-.2-.1-1.2.4m-25 55q-.5 3-.5 5.8 0 3.6.5 4.9l.5-1.3.5-1.2v-.7l-.1-4.9v-6H91q-.4.6-.8 3.3m3.9-22q-.2 1.1-.5 1.6l-.6.7q-.7 1-.7 6.7 0 5 .6 6.1l.7-.1q.2-.1.2-.3 1.4-1.5 1.6-7.4l-.1-6.7-1.2-.6m-5-49.7-.6.1 2.9 12.7v.1q.5 2.3 1.3 8.5 1.1 7.3 1.1 9.6l-.1-.6q-.3-3.5-.8-6.3l-.3 1.9.1 1.4-.1 2.2-.4 9.4q0 .9.2 1.4.2.6.7.6.4 0 1-.5L95-36q.1.3 1 .6l.1-.4.2-.2v-.1q.3-4.1.3-7.3 0-11-2.5-22.4-.5-2.6-1.2-4.8l-1.1-3.9-2.5-5.6m4.5-7.5v.1l.2.2.9 1.7q.9 1.8 1.1 3h.2q.2.1.2.5l.5.8q.4.7.4 1l5.6 8.9q.2-3.8-2.6-8.7-3.7-5.7-5.4-8.6l-.5.4-.4.3-.3.5M103-96l-.7-1.4q-.8 0-1.3.7t-.5 1.6q1.3 1.3 5.4 9.1 4 7.5 4.4 9.3l.4-.1q1-.7 1-2 0-.7-4.1-8.5l-.4-.8-1.1-2-1.5-3-1.6-2.9m-116 16.5-2.4.1-2.8.1h-3.4l-2.5.1-.1.4.2.7q1.5.2 1.9.4 1.3.2 9 0l12.4-.7h.2q.5-.3 4.1-.8-1.3-.5-7.2-.5l-9.4.2m22.4 7q-2.2-.9-7.5-1.8-5.4-.9-8.8-.9-7.7 0-12.6 1.6h3q5.6 0 15.4.5l10.5.5M6.5-77H4.8l6.7 2q5.9 1.6 7.6 1.4h.8l-2.5-1q-2.5-1-4.5-1.6l-.6-.2-2.5-.3q-2-.3-3.3-.3M-77.3 4.5h-.1l-.4.3V5l.5-.4m.8-.3-.6.2h-.2v.1q.6-.1.8-.3M46.8-61.1l-6.3-.4q-3.2-.2-6.8-.2l-4.9.2-7.8.5-7.9.8-9.2 1.1-2.1.3-3.7.3-2.7-.1h-2.3q-4.4 0-9.4.9-3.3.6-6.8 1.6-5 1.3-10 3-2.6 1-7.6 3.8l-1.6.8q-4.5 2.4-7.2 3.6l-2.3 1-9.1 3.3-6.4 2.1q-6 .7-11.2 7.1-2.7 3.3-5 7-.3-.8-.3-1.7-1.3 6.9-2.2 14l-.3 4q-.5 6.6-.5 20 0 .7.3.9l.5.2 4.3-.4 5.8-.6q-.3 0-.4-.2l-.5-.3-.5-1-.2-.6.2-.8.2-.7q0-.8-.3-1.9l-.3-1.5h-.1l-1.6.5-.5.3-1 .3q1.4-3.9 5.9-8.4 5.7-5.5 11.1-5.5 4 0 13.5 3.8l2.6 1.1 6.3 3q1 .2 10.9 4 9.8 3.7 11 4.3l1.3.8h.2l.3.2h1q1.6.4 3.1 3.5t1 5.1l-.2 1.6q-.2 1-.1 1.3.8.9 5.7 1.9 4.7.9 8 .9 7.4 0 10-1.6 1.8-1.1 1.8-3.9 0-3.8.4-4.9 1.3-2.9 6-4.8L44.4-1.6l2.5-.9Q60.3-7.8 63-7.8q4.3 0 7.8 2.8Q75.3-1.9 80 5.8q-.8 0-1.6-.5l-.5-.3-1.2-.7Q74.2 3 69.9 2.8h-1.3q-2.8 0-10 2L51.7 7q1.4 1.3 1.4 2.2 0 1-.7 1.3l-1.5.2 4.1-.1q7.4 0 18.5 1.2l11.7 1.1q1 0 1.3-.3.2-.3.2-1.5 0-7.5-.8-18.6-.8-13.9-2.2-20.9l-.6-3.3q-.5-3.1-1.7-7.3-1-3.5-1.6-4.9-.5-.5-.8-1.1-.3-1-.7-1.7-1.3-2.9-5.7-7.2-5.1-3.6-14.5-5.6l-6.4-1.1-1.5-.2-3.4-.4m6.9-48q-1.3-2.8-6.5-6.1-5.3-3.5-7.7-4 6 4.6 10.1 8 1.3 1 1.7 1.1l1.7 1.1 1 1v-.2l-.1-.6-.3-.3M22-97.8h.1q-4.7-2.2-13.3-4-7-1.5-8.9-1.5.4.1 0 .1 6.8 1.8 10.4 3.3l-12.4-.8-6.6-.2h-4.8l.3.5h.1q6.6 4.3 18.3 7.9Q16.6-89 23.4-89q.6 0 .6-.3v-.5l-.3-.3h.1l-3.8-4.3h.1l7.6 1.8.3-.3q.2-.5.8-1l-7-4m-2.2-5.9-5.3-1.1q2.9 2.6 5.7 4.6 2 1.4 2.3 2l2.3 1q3.2 1.3 8.9 4.4v-.2q-.3-1.5-6-7.3h.1q1.9.3 6.3 3.1l5.9 3.9-.9-2.2-.6-1.3q-1.5-3.7-5.9-6.9-2.1-1.5-4.7-2.8l.1.1q1.5 1.8 1.5 2.3v.3h-.2q-1-.4-1.9-1v.7q.1.3-.9.3-.5 0-1.3-.4-.9-.4-1.4-.4-.6 0-.9.3l-.3.3.2.7.3.8-3.3-1.2m-8-18.3q-1 .3-1.5.8.3 1.5 2.3 2.4l2.3.8q8.3 4.1 11.7 6.3l3.7 2.8 1.1-1q.3-.3.3-.6 0-4.3-6.6-8.3-6.1-3.6-11.3-3.6-.9 0-2 .4m73.6 13.5q1 .9 2.2 2.3L97.4-96l.8 1 .1-.1.7-1.2.3-.8-.3-1-1-1.7L84.5-118q-8.5-11-25.4-21.8-7.1-4.5-12.3-7.2l-2.8-1.4-1.4-.6 1.4 1 2.9 2.3 4 3.1q4.4 3.5 8.4 7l26 27.2m-9.3-6.3v-.4h-.3l.3.4m-59-29.1q-7.4-2-16.6-2-4.2 0-17 2-12.4 1.8-15.8 2.8-3.6 1-7.5 2.4l-5.1 2-2.4 1.3-1.6.8q-.3 0-2.8 1.2-9.4 4.6-17.7 10.8-7.4 5.5-13.3 12l-1.1 1.1 1.8.1 6.3-5.8q3-3.7 16.7-11.6 13.8-7.9 19.7-9.4l8.1-2.9q7.8-2.8 19-4.1 6.9-.8 11.5-.8 7.7 0 16.5 1.4 10.7 1.8 20.6 5.2l6.7 2.7 1 .4 2.9 1.3q15.3 6.8 25.6 15.6l2.5 1.9.5.2h.1l.3-.3.3.1q1.5.7 3.1 2.3l.8.6q1.2.8 1.7.8l-10.5-9-4.4-3.4q-5-3.4-10.7-6.5-4.6-2.7-9.1-4.8l-.3-.1-2.8-1.2-7.6-2.7q-5.2-.9-19.3-4.4m15.7-7.7q-1.4-1-5.1-2.3-4.6-1.7-8.7-2.7-7.5-1.6-19.1-1.6l-24.5 3.3-10.3 3-1.3.4-8 3.1q-10 4.1-16.9 9.3l-.4.3-2.5 1.6q-4 2.8-12.8 11.1-9 8.7-11.8 12.5l-2.4 3-4.2 5.1q-4.3 5.7-4.3 9l.3 1.3q.4 1.2.9 1.1 4.5-7.6 13.1-16.6 4.2-4.3 9.4-9 17.3-15.6 33.3-23h.1q.9-.5 2-.8l1-.2 1-.3-.1.3q-1.5 1.8-4.6 4.3v.4l.1.2q.1.2.3.2l10-3.3q6.9-1.8 12.3-3 10.3-2.3 20.8-2.3l8.8.1q3.9.3 5.6 1.4 0-.5 2.6 0 7.2 1.5 8.3 1.9l6.6 1.9 5.4 1.5q1-.4 1-1.2 0-.2-1-1.4-1-1.3-1.2-3.1-.3-2-.6-2.7-.4-.5-3.1-2.8m49.3 40.2-.1-.2.3 1 .5.4v.1l-.1-.5-.1-.2-.2-.3-.3-.3Z"/></g></defs><use xlink:href="#a" transform="translate(206.8 291.3) scale(.97702)"/></svg>