<svg xmlns="http://www.w3.org/2000/svg" xmlns:xlink="http://www.w3.org/1999/xlink" preserveAspectRatio="none" width="640" height="512"><defs><g id="a"><path fill="#6A6B67" d="M-128.3 33q-1.3 0-2.3 2h-.2v.8l.7 5.5 2.5 4.8q2.4 4.8 1.6 5.6h7.5q-1.2-1.6-4.5-11-2.8-7.7-5.3-7.7m-14.7 3.4q-1-.9-6.3-4.5-5.5-3.6-6.5-4-.5.7-1.1 1.2 0 .5 2.5 4 2.3 3.4 2.3 9 0 4.8-.3 6.4-.4 2.5-2.1 3.3h24q-.8-.4-4.3-5.6-4-6.2-8.2-9.9m-7.4-10.1 1-.3q.9-.4 1.6-1.2 0 .5-1 2.5 1 1.3 1.3 1.3 1.9 0 4.3-4 2.3-3.9 2.3-6.1 0-1.1-2.3-1.1-15.4 0-27.2 11.5-11.3 11.1-9.8 23h2.6l-.5-.2q0-8.4 5.8-16.2 6-7.8 12.8-8.3l-2.9-1.1q.8-.7 1.5-1 1-.5 4.3-.5 1.3 0 3.8.9l2.4.8m44.6 14.7q.9.9 4 2.6 6.2 3.7 7 8.3h9.5q-.4-.4-5.2-13.3l-4.7-12.8q-5.4 0-12.5 11.3 0 2.2 1.9 3.9m51.5-1.1q-.9.7-1 1.1-.3.5-.3 2 0 .8 1.5 4.6 1.1 3.1.6 4.3h13q-1.7-1.1-13.8-12m-7.3-2-4.3-7.2-.7-1.2-.6 6.4q0 .9 3.4 6.7 3.4 5.7 3.4 8.1 0 .6-.3.9l-.6.3h7.1q-4.6-9.1-7.3-14m25.8-86.7-6.7 5q5-3.5 8.1-6l-1.5 1M55.2 45l1.6-5.4.1-.4q-1 1.2-5.8 4.8-6.2 4.7-11.9 7.9h22q-.3-.1-.3-1 0-1.2 3.1-8.1 3-7 3-8 0-1.5-.7-4.8l-6.5 10.8q-4.2 7-5.4 9.3l-.9 1.4q0-.9 1.7-6.5m.6-41.4Q54.4.7 52.7.7q.7 2.2 4.3 9.6 0-4-1.3-6.8M95 27q-1 0-1.9 4.1-1.5 7-4.6 13.8l.8.5q.4.1 1-.1l.2-.1-2 3.3q-.7 1.1-2.8 3.3h10.1l-1.5-.6q4.8-3.3 8.5-6.6 4.9-4.5 4.9-6.8 0-3.8-4.6-7.4-4.3-3.4-8-3.4m60.8 2.9-.1-.3q-.2-.3-.8-.3-.3 0-.8.6l-1.4 1.5q-.7-1.8-1.1-1.8-4 0-11.4 10-7.1 10.8-8.3 12.1h22q-3.2-2.6-3.2-6 .8-4.5 1.1-7.2l-2.1.9 6-9.5m-26.5 11.3q3-4.4 3-6.4 0-1-1.2-1.5-.8-.4-1.8-.4-3.9 0-6.4 7.4l-1.9 6.3q-1 3.5-2.2 5.1h5.6q1.3-5.4 4.9-10.5m48.8 3.5q-2.4-6.3-6-11.5-10.5-15.5-26.1-15.5-2.2 0-4.8.3h-.1q-.3.1-.3.7 0 4.2 2.9 7.5 2.2 2.5 3 2.5l1.5-.3q1.1-.8.2-2.5 1.5.4 2.4.4L157 25q1.7 0 4 .9l1.3.7-2.2.6-.2.4 7.5 3.6q3.1 1.6 4.5 3.2 2.9 3 6.3 17.4h2.1q-.3-2.4-2.1-7.1M30.6-51.6Q19.9-54.1 7.7-55q-6.8-.5-17.2-.5-15.2 0-21.4 3l-.2.1-3.2 2.6q-5.6 4.6-8 8-1.7 2.3-2 3.8-.2 2.6.5 5.8.7 3 3 10.2 3.4 11 7 18.6 1.9 4 3.7 7.2l.2.3-6.3-7q-5.1-5.5-9.3-8.7l-2.8 7.6q-.3.4-.9.6-.5.3-1 .3-.5.8-4.4 5-3.5 4.3-3.5 5.3 0 6.6 8.9 17.9 6.9 8.7 11.3 11.9l4.2 2.8 1.6.9h.2q2.7-.6 5.3-1.5 5-1.8 10.5-5.3Q.6 23.2 20.7-3.3L41.3-33q.6-1 1.1-2.5.5-1.4.5-2 0-3.3-1.2-4.6L38-46.5l-7.4-5M-141 15.7h.2l-1.5-1-.8-.3-2 .8-3.4 1.3 1.3.1q1.2 0 6.2-.9m26.1-9.4V4.7q-4.5 12.2-3.8 12.4 4.3-9 3.8-10.8m-1.8-5-1.2.6-5.1 2.8-.6-.4-.2.2-3 2q-2.9 1.7-4.5 3.3-.6.8-1.4 2.6l-1.6 3.7q8-5.2 9.9-6.6 2.5-1.7 7.7-8.2m66.4-45.1-.1.3L-54-40q-2.1 1.6-4.4 2.3l-5.6 2-.1.1q5.8 0 9.8-2.5 4.1-2.4 4.1-5.8m-56.6 37v-.5q0-.3-.7-.3l-1.7.8q-1.6 1.2-1.2 3.4.2.1.3.8l1.8-2.2q1.3-1.5 1.5-2m41.2-21.8.1.7.2.4.3.4.5 1q.3-1-.5-3.1h-.2l-.3-.4q-.1-.1-.1 1m-39.3 12.9q.6.4 1.6.4 3.5 0 4.6-3.1 2.2-6 4.4-8.9l-10.6 11.6m14-15-.2.1q-3.9 8-7 13.7-1.1 2.5-1.1 8.3 0 1.7-2.5 5-3 3.8-4 6.8l.1.5q.1.2.8.2.5 0 .8-.4l.8-1 .4-.1.3-.1.5.1.2 1.1q-.5 5.5-3.7 8.3-2.8 2.6-2.8 7.5 0 2.4 1.9 4.9 1.4 1.8 2.6 2.4.5.2 1.3-.3 4-2.4 5.5-4 1.2-1.4 1.2-2.6 0-20.2 5.8-31.3 3.2-6.1 4-8.7 1.8-5.6 1.7-14.4-1.2.3-3.7 1.9l-3 2.1m222 40.9-4.8-3.4-5-2.8-5-3v.4q1.4 3.8 6.5 8.5 5.7 5.3 10.2 5.3l.7-.1q-.1-.3 0-.4-.1-.9-.9-2.3-.8-1.5-1.8-2.2m17.2 6.4q-1-.7-2.8-1.5l-1.9-.7q-.6 0-1.1.3l-1.6.7q5 1.3 7.4 1.2m-31-22.9V-7q-1 .5-1.3 1-.2.4-.2 1.3 0 3.6 4.3 6 3.1 1.8 5.9 1.9-1.4-.8-5.1-5Q117-6 117-6.4m-9.5-.1v.2l.8 1.2q.8 1.1 1.6 3.6l.1-.6q.8-2 .1-3.2-.7-1.1-2.6-1.2m0-12q.5.8.8 1.8.4.9 2 1.7l.9.5q-.3-1-2.5-3.6t-1.3-.4m-39.4-5-.6 1.3.1 1.6q.8-1 1.1-2.2l-.5-.7m29.7.8 2.2 5q.5.8 4 4.5l1.5 1.2.6-.3.7-.7q-5-6.8-9-9.7M85.2-35v.1q.1 1.5-.7 3l-.8 1.6q0 1.4 4.8 15.3Q94 .3 95.5 6.3q.4 2 .8 11.8 1.5 8.9 7.6 8.9 3.4 0 7-14.8 0-2.5-.2-3 0-.2-1.7-1.9-5-5-13.7-21.1-.4-.9-.4-4.7L95-22l-1.3-2.8q-1.5-2.8-1.8-4.4l-.2-.2.1-.3q-.6-1-1.3-1.7-1.3-1.2-5.3-3.6Z"/><path fill="#ECCBA2" d="M-44.3-38.1q.3-1.5 2-3.8 2.4-3.4 8-8-3.2 2.5-8.1 6-2.9 1.9-3.9 7-.7 3.3-.7 10.7 0 8.6-.3 12.1-.7 6.7-3 10.8h.1q.5.1 1-.2.6-.2.9-.5l2.8-7.7q4.2 3.2 9.3 8.6 4.9 5.6 6.3 7l-.2-.2q-1.8-3.3-3.6-7.2-3.6-7.6-7.1-18.6-4-11.9-3.5-16m86-4q1.2 1.4 1.2 4.6 0 .6-.5 2-.5 1.5-1.1 2.5L20.7-3.4Q.6 23.1-16.1 34q-5.4 3.5-10.5 5.2-2.6.9-5.3 1.5.3.3.7.4 3.2 1.5 10.6 3.9 6.8 2.2 9 2.6l.5.1q28.2 0 48.1-10.9 20-11 20-26.4-3.6-7.5-4.4-9.6-.8-1.3-3.1-9.3Q47-17 47-19.4l-.4-20.4q0-.6-.3-1l-.1-.2-8.2-5.6 3.7 4.4M-123.7 4.5l.2-.2-.4-.1-4.8 1.1-1.7 1.3q-1 1.2-1 3.2h.2q1.6-1.7 4.4-3.3l3.1-2m-3.8 1.4.3-.4v1l-.3-.6m77.1-49.4.2-.3-.4.1q-4.8 1.2-18.4 5.5 0 1.1 1.5 1.9 1.4.8 3.4.8h.1l5.6-2.1 2-.9 2.4-1.4 3.6-3.6M-116-8.8l.7-1.7-6.8 7.2q-3.6 3.8-5.6 6.6 2.6 0 7.4-4.3 4.5-4.1 4.5-5.7v-.6h-.3l-1.4.3q.7-.3 1.5-1.8m7.6-8.8.4-.9-1.5 1.5q-1 1.2-1.2 2l1.2-.9q.7-.6 1.1-1.7m2.9-5.5q.7 0 .8-.9.4-1.4 2.3-2.9-5.6 1.9-6.9 2.7-1 .7-2.3 3l-.1.4q2.2-1.7 3.1-2.1 1.5-.8 3.1-1.1l.3.5q0 .3-.3.4M-83-33.4l1.1.6q4.3 1.9 6 3 2.7 1.5 6.8 6.7v-.4q-1-5.1-4-7.9-2.8-2.6-6.5-2.6-.7 0-3.4.6m18.5 7.5v-.2l-.5-1 .5 1.2m-29.8-1.4 2.5-2.6.7-.7h.1q1-.9 3-2.3 2.5-1.6 3.7-1.9.5-.7 2.3-1.4 1.5-.6 2.2-.6 4.3 0 8.7 3 3.7 2.4 5.6 5.9l-.1-.8q0-1 .1-.9l.3.4h.2q-3-3.8-5.7-7.7-2-1.8-8.8-1.8-1.7 0-7.1 1.7-5.9 1.8-7.3 3.1-8.1 8.1-12.7 16-3.3 5.5-3.3 7.3l.1.7v-.1l1.3-1.6 3.5-4 .1-.1 10.6-11.6M131 10.2q0-1.9-2-3.2-1.9-1.4-4.7-1.4l2 1.2 4.6 3.4M117-7v.8q0 .3 3.7 4.4 3.7 4.2 5.1 5 1 .4 1.5.3l.2-.1Q125.4.5 123.1-2l-6.8-7.4-.5-.7-.1-.1v.5q0 1.2.5 1.7l.9 1m-9.3-17.8q-1.3-1-6-2.3l2.9 3.9.5-.3.4-.4q.7 0 1.7.5h.1l1 .7 2.3 1.7.8.9q-3.3-4.3-3.8-4.7m-28.2-9.3L75-33q-3.5 1.6-5.3 5.3-1.2 3.7-1.7 4.3l.6.7q.2-.1 1-1.4 1-1.4 1.5-1.8 1.4-1.7 6-4.2 4.3-2.3 4.7-3-.6-1.1-2.3-1m-15.3-1.4q1.3 0 2.1-.6.9-.5 2.3-2.4l-10-3-8.2-1.8.2.1.3.4 1 2.2q2.5 2.4 7 3.9 3.5 1.2 5.3 1.2M92-29.2v-.1M69.6-36q-5.1 3.1-5.3 7.5 4-2.6 8.2-6 3-2.3 6.4-2.3.4 0 6.2 1.8 4.2 2.4 5.4 3.6l1.3 1.8.2.1v.2l3.1 3.7 2.7 3q4 2.9 9 9.8l3.4 4.8q-4.3-12.7-11.5-20.8-9-10-20.5-10-4.2 0-8.6 2.8Z"/><path fill="#38222F" d="m30.9-51.5-.4-.1 7.5 5.1 8.1 5.6.3.3q.3.3.3.9l.3 20.4q0 2.3 2.5 10.7 2.3 8 3.1 9.3 1.9 0 3.1 2.8Q57 6.3 57 10.3q0 15.4-20 26.4-19.9 11-48.1 11l-.6-.2q-2-.4-8.9-2.6-7.4-2.4-10.6-3.9l-1-.4-1.5-.9-4.3-2.8q-4.3-3.2-11.2-11.9-9-11.3-9-17.9 0-1 3.6-5.3l4.4-5q2.3-4.2 2.9-10.9.3-3.5.3-12.1 0-7.4.7-10.8 1-5 3.9-6.9l6.6-5 1.5-1 3.2-2.6.2-.1q-18.5 6-31.5 10.6-4.6 1.5-9 1.5l-9.3-.1q-4.1-.1-6.3.4-4.9 1-12.3 8.4-1.9 1.7-5.4 3.2-5 2-9.2 4.5-1.7 1-2.3 6.2-.7 5.4-1.6 6.3-2 2-9.8 12.5-8 10.8-10 13l-1.6-1.4q-.7-.6-3.4-.6-2.6 0-20.2 8.2-12 5.7-17.1 18.6-2.6 6.5-2.8 12.1l.1 1h2.5q-1.6-11.9 9.8-23 11.7-11.6 27.2-11.6 2.2 0 2.2 1.2 0 2.3-2.3 6-2.4 4.1-4.3 4.1-.3 0-1.3-1.3 1-2 1-2.5-.7.8-1.6 1.2l-1 .3-2.4-.8q-2.5-.9-3.8-.9-3.3 0-4.3.5-.7.3-1.5 1l2.8 1.1q-6.7.5-12.7 8.3-5.8 7.8-5.8 16.2l.5.1h23.1q1.7-.8 2.2-3.2.3-1.6.3-6.5 0-5.5-2.4-9-2.5-3.4-2.5-4 .6-.4 1.1-1.1 1 .4 6.5 4 5.4 3.6 6.3 4.5 4.2 3.6 8.2 9.8 3.5 5.2 4.4 5.5h4.5q.7-.8-1.6-5.7l-2.6-4.8-.8-5.4q0-.6.2-.8 1.1-2 2.4-2 2.5 0 5.3 7.7 3.3 9.4 4.5 11 19.6.2 23.8 0-.9-4.5-7.1-8.2-3.1-1.8-4-2.6-1.9-1.7-1.9-3.9 7.1-11.3 12.5-11.3l4.8 12.8q4.7 12.9 5 13.3 12.8.2 24 0l.7-.3q.3-.3.3-.9 0-2.4-3.4-8.1-3.4-5.8-3.4-6.8l.6-6.3.7 1.2 4.4 7.3q2.7 4.8 7.4 13.9h.6q.5-1.1-.6-4.3-1.4-3.8-1.4-4.5l.1-2.1 1.1-1.1q12.1 10.9 13.8 12l1.9.1H22q11.2.1 17-.1 5.7-3.2 12-7.9 4.6-3.6 5.7-4.8v.4L55 44.9q-1.6 5.6-1.7 6.5l.9-1.4q1.2-2.3 5.4-9.4L66.2 30q.7 3.3.7 4.8 0 1-3 8-3 6.9-3 8.1 0 .9.2 1h.1q2.8.2 10.5.2 7.3 0 14-.3 2.1-2 2.8-3.2l2-3.3h-.2q-.6.3-1 .1l-.8-.4Q91.5 38 93 31q.9-4.1 2-4.1 3.7 0 8 3.4 4.6 3.6 4.6 7.4 0 2.4-5 6.9-3.6 3.3-8.5 6.5l1.6.5q2.5.5 7.3 2.3l4.3 1.7 2.7-.9 8.7-3q1.2-1.7 2.3-5.3l1.9-6.2q2.5-7.4 6.3-7.4 1 0 1.8.4 1.2.6 1.2 1.5 0 2-3 6.4-3.6 5.1-4.9 10.5 4 .5 7.6 0 1.2-1.3 8.3-12.1 7.4-10 11.4-10 .5 0 1.1 1.8l1.3-1.5q.6-.5 1-.5.6 0 .7.2v.3l-6 9.5 2.1-.9-1 7.1q-.1 3.5 3 6.1 3.8.2 11.2.2l13-.1q-3.4-14.3-6.3-17.4-1.4-1.6-4.5-3.1l-7.5-3.8.2-.3 2.2-.6-1.3-.7q-2.3-.9-4-.9l-6 1.3q-1 0-2.5-.4.9 1.8-.2 2.5l-1.4.3q-.9 0-3.1-2.5-2.8-3.3-2.8-7.5 0-.6.2-.6l.1-.2 4.8-.2q15.6 0 26.1 15.5 3.6 5.3 6 11.5 1.8 4.7 2.1 7v.4h2.6v-1q-.2-4.9-2.1-10.5-3.8-11-12.4-16.7-7.9-5.1-17.5-9l-8.2-2.9-5.2 2.1q-.3 0-10.7-13.4-10.6-13.6-10.6-14.6 0-1.4-1.1-5.5-1.2-4.6-2.1-4.6-2 0-5.6-2.6l-7.3-5.7q-11-8.4-19.8-8.4l-8.7.8q-2 0-6.5-1.6-12-3.9-34.1-10m33.4 23q.2-4.4 5.3-7.5 4.4-2.8 8.7-2.8 11.5 0 20.5 10Q106-20.6 110.2-8l-3.5-4.8-.6.6-.5.3-.6-.3-1-.9-4-4.5-2.2-5-2.7-3-3.1-3.6q.3 1.6 1.7 4.4L95-22l-.2 3.6q0 3.8.5 4.7 8.6 16.1 13.6 21.1l1.7 1.9q.3.5.3 3-3.7 14.8-7.1 14.8-6.1 0-7.5-8.9-.5-9.8-.9-11.8Q94 .4 88.5-15q-4.8-13.8-4.8-15.2l.8-1.6q.8-1.5.7-3H85q-5.8-1.9-6.2-1.9-3.4 0-6.5 2.3-4.2 3.4-8 6m1.9-7.6q-.8.6-2.1.6-1.8 0-5.3-1.2-4.5-1.5-7-3.9l-1-2.2-.3-.4-.2-.1 8.2 1.8 10 3q-1.4 1.9-2.3 2.4m8.8 3.1 4.5-1.1q1.6-.1 2.2 1-.4.7-4.8 3-4.5 2.5-6 4.2l-1.3 1.8-1.1 1.4q-.3 1.1-1 2.2l-.2-1.6.6-1.3q.5-.6 1.8-4.3 1.8-3.8 5.3-5.3m26.8 5.9q4.6 1.3 5.8 2.3.5.4 3.8 4.7l-.8-.9-2.3-1.7-1-.7h-.2q-1-.5-1.6-.5l-.3.4-.2.2-.4.1-2.9-3.9m6.5 10.6q-.3-1.1-.8-2-1-2.1 1.2.5 2.3 2.6 2.5 3.6l-.9-.5q-1.6-.8-2-1.7m-.8 10.4v-.2q1.9 0 2.6 1.2.7 1.2 0 3.2l-.2.6q-.8-2.5-1.6-3.6l-.8-1.3M117-7h.1l-1-1q-.4-.5-.4-1.7v-.5l.1.1.5.7 6.8 7.4q2.3 2.5 4.4 5.4l-.2.1q-.5.1-1.5-.3-2.8-.1-5.9-1.9-4.3-2.4-4.3-6 0-.9.3-1.3.3-.5 1.1-1m28.3 22.1q1.8.8 2.8 1.5-2.4.1-7.3-1.2l1.5-.7q.5-.3 1.1-.3.3 0 1.9.8M129 7q2 1.3 2 3.2.9.7 1.7 2.2.8 1.4.9 2.3-.1.2 0 .4l-.7.1q-4.5 0-10.3-5.3-5-4.7-6.4-8.6V1l5 3 3.1 1.6q2.8 0 4.7 1.4M-91.8-30l-2.5 2.7q-2.3 2.9-4.4 8.9-1 3.1-4.6 3.1-1 0-1.6-.3h-.1l-3.5 4-1.3 1.7v-.1.1-.7q0-1.8 3.2-7.3 4.6-7.9 12.7-16 1.4-1.4 7.3-3.1 5.4-1.7 7.1-1.7 6.8 0 8.8 1.9Q-68-33-65-29.3q.8 2 .5 3.1v.2l-.5-1.2-.3-.4-.2-.4q-2-3.5-5.6-6-4.4-2.9-8.8-2.9-.6 0-2.1.6-1.8.7-2.3 1.5 0 8.8-1.8 14.5-.8 2.5-3.9 8.5-5.8 11.2-5.8 31.4 0 1.3-1.2 2.6-1.5 1.6-5.5 4-.3.3-.8.3h-.5q-1.2-.7-2.6-2.4-2-2.5-2-4.9 0-4.9 3-7.5 3.1-2.8 3.6-8.3l-.2-1q-.4-.3-.8-.1l-.5.1-.7 1q-.3.4-.8.4-.7 0-.8-.2l-.1-.5q1-3 4-6.8 2.5-3.3 2.5-5 0-5.8 1.2-8.3 3-5.7 6.9-13.7l-.7.7m9.9-2.9-1.1-.6q2.8-.6 3.4-.6 3.8 0 6.5 2.6 3 2.8 4 7.8v.5q-4.1-5.2-6.8-6.8-1.7-1-6-2.9m-22.8 9q-.1.7-.8.8.4 0 .3-.4l-.3-.5q-1.6.3-3.1 1.1-.9.4-3.1 2l.1-.3q1.3-2.3 2.3-3 1.3-.8 6.8-2.7-1.8 1.5-2.2 3m-3.3 5.4-.4.9q-.4 1-1.1 1.7l-1.2 1q.2-.9 1.3-2t1.4-1.6m-7.3 8-.8 1.7q-.7 1.5-1.4 1.7l1.5-.2h.2v.6q0 1.6-4.5 5.7-4.8 4.4-7.4 4.3 2-2.8 5.7-6.7l6.7-7.1m8.5 3v.6q-.2.5-1.5 2l-1.9 2.2q0-.6-.2-.8-.4-2.2 1.2-3.4l1.8-.8q.6 0 .7.3m56.5-36.5q0 3.4-4 5.8-4.1 2.5-9.9 2.5-2 0-3.5-.8-1.4-.8-1.4-1.9 1-.6 9.4-3l9-2.5.4-.1M-116.5.8V1l-.2.4h.1q-5.2 6.5-7.7 8.3l-9.9 6.5.8-2.1q.8-2.1 2-4.3 0-2 1-3.1l1.8-1.3 1.3-.5 3.4-.6.4.1.6.4 5.1-2.8 1.3-1m1.7 3.8v1.6q.5 1.9-3.8 10.8-.7-.2 3.8-12.5m-26 11-.1.1q-5 .9-6.2.9-1 0-1.3-.2 1.2-.3 3.4-1.2l2-.8.8.3 1.4 1M92-29.6l-.2-.1-.1.3h.3v-.2Z"/></g></defs><use xlink:href="#a" transform="translate(206.7 460.1)"/></svg>