<svg xmlns="http://www.w3.org/2000/svg" xmlns:xlink="http://www.w3.org/1999/xlink" preserveAspectRatio="none" width="640" height="512"><defs><path fill="#9900CB" d="M-84.3-21.4q-4.3 6.7-.4 18.8 4.3 13 15 21.2 10.3 7.8 19.7 8.7 9 .8 16.5-4.9Q-18.7 11.3-13.4.1q5.3-10.6-.5-16Q-26.2-27-54.4-27.4q-10.9-.1-19.6 1.7-8.7 1.8-10.3 4.3M74-25.7q-8.7-1.8-19.6-1.7-28.2.3-40.5 11.5-5.8 5.4-.6 16 5.4 11.2 20.2 22.3Q41 28.2 50 27.3q9.5-.9 19.7-8.7 10.8-8.2 15-21.2 3.9-12-.4-18.8Q82.7-24 74-25.7Z" id="a"/></defs><use xlink:href="#a" transform="translate(206.6 337.9) scale(.97702)"/></svg>