<svg xmlns="http://www.w3.org/2000/svg">
<defs>
<font horiz-adv-x="1301" ><font-face
    font-family="Rabbit Fire"
    units-per-em="2048"
    panose-1="2 0 5 0 0 0 0 0 0 0"
    ascent="1716"
    descent="-418"
    alphabetic="0" />
<missing-glyph horiz-adv-x="1500" d="M676 1396H708Q1043 1396 1272 1096Q1396 909 1396 716V676Q1396 362 1108 128Q914 0 720 0H688Q353 0 124 300Q0 487 0 680V720Q0 1034 288 1268Q482 1396 676 1396ZM96 880H100Q788 876 1184 876H1300Q1206 1140 1008 1240Q870
1324 712 1324H680Q412 1324 212 1096Q124 983 96 880ZM664 1252L692 1224L724 1252Q729 1252 756 1220Q750 1220 728 1192V1188Q728 1182 756 1160Q756 1166 784 1188H788Q794 1188 816 1160V1156Q816 1150 788 1128H784L752 1156L728 1128Q756 1098 756 1092L724
1064L692 1092L660 1064L632 1096L660 1128Q635 1156 632 1156L600 1128Q595 1128 568 1160L600 1188L632 1160L660 1192Q654 1192 632 1220Q632 1225 664 1252ZM692 1220L664 1188L696 1160Q696 1162 720 1188V1192Q720 1198 692 1220ZM692 1156L664 1124Q690
1100 692 1100Q698 1100 720 1128Q720 1134 692 1156ZM320 1008H332L360 1000V992L352 980Q330 984 320 984Q304 980 304 960Q304 943 324 936Q350 944 352 944L364 928Q351 918 328 912Q276 921 276 960Q284 1008 320 1008ZM372 1008H392Q400 1007 400 1000V972H428V1008H456V916H428V948H400V916H372V1008ZM476
1008H540V984H496V972H540V956Q540 948 532 948L524 952L516 948L496 952V940H536Q544 939 544 932V916H468V1000Q469 1008 476 1008ZM600 1008Q652 1001 652 964L644 932Q652 931 652 924Q652 918 636 908Q626 916 624 916Q602 912 592 912Q559 912 548 960Q548
1008 600 1008ZM668 1008H680Q688 1007 688 1000V960Q691 936 700 936H708Q714 936 720 948V1000L724 1008L732 1004H736L744 1008L748 1000V952Q743 912 708 912H700Q664 912 660 960V1000Q661 1008 668 1008ZM764 1008H772L796 1004Q804 1008 808 1008Q816 1004
820 1004Q828 1008 832 1008V988Q832 980 824 980Q817 984 808 984V980L800 984H788V972H832V956Q832 948 824 948H788V936H800Q804 936 804 940L812 936H820Q824 936 824 940Q832 936 836 936V916H816L792 912Q785 916 772 916V912Q764 916 760 916V988L764 1008ZM852

<glyph unicode=" " glyph-name="space" horiz-adv-x="508" />
<glyph unicode="!" glyph-name="exclam" horiz-adv-x="800" d="M700 400V0H0V400H700ZM0 500V1400H700V500H0Z" />
<glyph unicode="&quot;" glyph-name="quotedbl" horiz-adv-x="1600" d="M700 800L0 600V1400H700V800ZM1500 800L800 600V1400H1500V800Z" />
<glyph unicode="#" glyph-name="numbersign" horiz-adv-x="1500" d="M100 600V800H0V1100H100V1400H400V1100H600V1400H1300V1100H1400V800H1300V600H1400V300H1300V0H600V300H400V0H100V300H0V600H100ZM400 800V600H600V800H400Z" />
<glyph unicode="$" glyph-name="dollar" horiz-adv-x="1500" d="M300 1400V1700H600V1400H800V1700H1100V1400H1400V1100H850L1400 0H1100V-300H800V0H600V-300H300V0H0V300H550L0 1400H300Z" />
<glyph unicode="%" glyph-name="percent" horiz-adv-x="1500" d="M450 900H0V1400H500V1000L700 1400H1400L950 500H1400V0H900V400L700 0H0L450 900Z" />
<glyph unicode="&amp;" glyph-name="ampersand" horiz-adv-x="1500" d="M1400 -200H1100V0H0L300 700L0 1400H1400V1100H829L1000 700L829 300H1100V1000H1400V-200Z" />
<glyph unicode="&apos;" glyph-name="quotesingle" horiz-adv-x="800" d="M700 800L0 600V1400H700V800Z" />
<glyph unicode="(" glyph-name="parenleft" horiz-adv-x="1000" d="M900 1400V1100H700V300H900V0H0V1400H900Z" />
<glyph unicode=")" glyph-name="parenright" horiz-adv-x="1000" d="M0 1400H900V0H0V300H200V1100H0V1400Z" />
<glyph unicode="*" glyph-name="asterisk" horiz-adv-x="1000" d="M700 1150H900V850H700V600H200V850H0V1150H200V1400H700V1150Z" />
<glyph unicode="+" glyph-name="plus" horiz-adv-x="1000" d="M700 850H900V550H700V300H200V550H0V850H200V1100H700V850Z" />
<glyph unicode="," glyph-name="comma" horiz-adv-x="800" d="M700 0L0 -200V600H700V0Z" />
<glyph unicode="-" glyph-name="hyphen" horiz-adv-x="1000" d="M900 550H0V850H900V550Z" />
<glyph unicode="." glyph-name="period" horiz-adv-x="800" d="M700 0H0V600H700V0Z" />
<glyph unicode="/" glyph-name="slash" horiz-adv-x="1500" d="M0 0L700 1400H1400L700 0H0Z" />
<glyph unicode="0" glyph-name="zero" horiz-adv-x="1400" d="M0 1400H1300V0H0V1400ZM300 1100V300H600V1100H300Z" />
<glyph unicode="1" glyph-name="one" horiz-adv-x="800" d="M700 0H0V1400H700V0Z" />
<glyph unicode="2" glyph-name="two" horiz-adv-x="1400" d="M600 1100H0V1400H1300V550H700V300H1300V0H0V850H600V1100Z" />
<glyph unicode="3" glyph-name="three" horiz-adv-x="1400" d="M600 1100H0V1400H1300V0H0V300H600V550H0V850H600V1100Z" />
<glyph unicode="4" glyph-name="four" horiz-adv-x="1400" d="M0 1400H300V600H600V1400H1300V0H600V300H0V1400Z" />
<glyph unicode="5" glyph-name="five" horiz-adv-x="1400" d="M1300 1400V1100H700V850H1300V0H0V300H600V550H0V1400H1300Z" />
<glyph unicode="6" glyph-name="six" horiz-adv-x="1400" d="M1300 1400V1100H700V850H1300V0H0V1400H1300ZM700 550V300H1000V550H700Z" />
<glyph unicode="7" glyph-name="seven" horiz-adv-x="1500" d="M1400 1400L700 0H0L550 1100H0V1400H1400Z" />
<glyph unicode="8" glyph-name="eight" horiz-adv-x="1400" d="M300 850H600V1100H300V850ZM0 1400H1300V0H0V1400ZM300 550V300H600V550H300Z" />
<glyph unicode="9" glyph-name="nine" horiz-adv-x="1400" d="M0 0V300H600V550H0V1400H1300V0H0ZM600 850V1100H300V850H600Z" />
<glyph unicode=":" glyph-name="colon" horiz-adv-x="800" d="M700 0H0V400H700V0ZM700 600H0V1000H700V600Z" />
<glyph unicode=";" glyph-name="semicolon" horiz-adv-x="800" d="M700 0L0 -200V400H700V0ZM700 600H0V1000H700V600Z" />
<glyph unicode="&lt;" glyph-name="less" horiz-adv-x="1000" d="M900 1400V1100H700V300H900V0H0V1400H900Z" />
<glyph unicode="=" glyph-name="equal" horiz-adv-x="1000" d="M900 800H0V1100H900V800ZM900 300H0V600H900V300Z" />
<glyph unicode="&gt;" glyph-name="greater" horiz-adv-x="1000" d="M0 1400H900V0H0V300H200V1100H0V1400Z" />
<glyph unicode="?" glyph-name="question" horiz-adv-x="1400" d="M600 1100H0V1400H1300V550H0V850H600V1100ZM600 0H0V400H600V0Z" />
<glyph unicode="@" glyph-name="at" horiz-adv-x="1400" d="M700 300H1300V0H0V1400H1300V450H850V950H1000V1100H700V300Z" />
<glyph unicode="A" glyph-name="A" horiz-adv-x="1400" d="M0 1400H1300V0H600V500H300V0H0V1400ZM300 1100V800H600V1100H300Z" />
<glyph unicode="B" glyph-name="B" horiz-adv-x="1500" d="M0 1400H1400L1100 700L1400 0H0V1400ZM300 1100V300H571L400 700L571 1100H300Z" />
<glyph unicode="C" glyph-name="C" horiz-adv-x="1400" d="M1300 1400V1100H700V300H1300V0H0V1400H1300Z" />
<glyph unicode="D" glyph-name="D" horiz-adv-x="1500" d="M464 300L636 1100H300V300H464ZM1400 1400L1100 0H0V1400H1400Z" />
<glyph unicode="E" glyph-name="E" horiz-adv-x="1400" d="M1300 1400V1100H700V850H1300V550H700V300H1300V0H0V1400H1300Z" />
<glyph unicode="F" glyph-name="F" horiz-adv-x="1400" d="M1300 1400V1100H700V850H1300V550H700V0H0V1400H1300Z" />
<glyph unicode="G" glyph-name="G" horiz-adv-x="1400" d="M1300 1400V1100H700V300H1000V550H850V850H1300V0H0V1400H1300Z" />
<glyph unicode="H" glyph-name="H" horiz-adv-x="1400" d="M300 550V0H0V1400H300V850H600V1400H1300V0H600V550H300Z" />
<glyph unicode="I" glyph-name="I" horiz-adv-x="800" d="M700 0H0V1400H700V0Z" />
<glyph unicode="J" glyph-name="J" horiz-adv-x="1400" d="M600 300V1400H1300V0H0V300H600Z" />
<glyph unicode="K" glyph-name="K" horiz-adv-x="1500" d="M300 550V0H0V1400H300V850H464L700 1400H1400L1100 700L1400 0H700L464 550H300Z" />
<glyph unicode="L" glyph-name="L" horiz-adv-x="1400" d="M0 1400H700V300H1300V0H0V1400Z" />
<glyph unicode="M" glyph-name="M" horiz-adv-x="1800" d="M800 1100V0H500V1100H300V0H0V1400H1700V0H1000V1100H800Z" />
<glyph unicode="N" glyph-name="N" horiz-adv-x="1400" d="M300 1100V0H0V1400H1300V0H600V1100H300Z" />
<glyph unicode="O" glyph-name="O" horiz-adv-x="1400" d="M0 1400H1300V0H0V1400ZM300 1100V300H600V1100H300Z" />
<glyph unicode="P" glyph-name="P" horiz-adv-x="1400" d="M1000 1100H700V850H1000V1100ZM1300 1400V550H700V0H0V1400H1300Z" />
<glyph unicode="Q" glyph-name="Q" horiz-adv-x="1400" d="M0 1400H1300V33L1400 -200H700L614 0H0V1400ZM300 1100V300H486L400 500H600V1100H300Z" />
<glyph unicode="R" glyph-name="R" horiz-adv-x="1500" d="M300 1100V0H0V1400H1400L1100 700L1400 0H700L400 700L571 1100H300Z" />
<glyph unicode="S" glyph-name="S" horiz-adv-x="1500" d="M0 0V300H550L0 1400H1400V1100H850L1400 0H0Z" />
<glyph unicode="T" glyph-name="T" horiz-adv-x="1400" d="M1300 1400V1100H1000V0H300V1100H0V1400H1300Z" />
<glyph unicode="U" glyph-name="U" horiz-adv-x="1400" d="M0 1400H300V300H600V1400H1300V0H0V1400Z" />
<glyph unicode="V" glyph-name="V" horiz-adv-x="1500" d="M500 467L700 1400H1400L1100 0H300L0 1400H300L500 467Z" />
<glyph unicode="W" glyph-name="W" horiz-adv-x="1800" d="M500 300V1400H800V300H1000V1400H1700V0H0V1400H300V300H500Z" />
<glyph unicode="X" glyph-name="X" horiz-adv-x="1500" d="M500 933L700 1400H1400L1100 700L1400 0H700L500 467L300 0H0L300 700L0 1400H300L500 933Z" />
<glyph unicode="Y" glyph-name="Y" horiz-adv-x="1400" d="M0 1400H300V900H600V1400H1300V0H0V300H600V600H0V1400Z" />
<glyph unicode="Z" glyph-name="Z" horiz-adv-x="1500" d="M550 1100H0V1400H1400L850 300H1400V0H0L550 1100Z" />
<glyph unicode="[" glyph-name="bracketleft" horiz-adv-x="1000" d="M900 1400V1100H700V300H900V0H0V1400H900Z" />
<glyph unicode="\" glyph-name="backslash" horiz-adv-x="1500" d="M0 1400H700L1400 0H700L0 1400Z" />
<glyph unicode="]" glyph-name="bracketright" horiz-adv-x="1000" d="M0 1400H900V0H0V300H200V1100H0V1400Z" />
<glyph unicode="^" glyph-name="asciicircum" horiz-adv-x="800" d="M700 800L0 600V1400H700V800Z" />
<glyph unicode="_" glyph-name="underscore" horiz-adv-x="1400" d="M1300 0H0V300H1300V0Z" />
<glyph unicode="`" glyph-name="grave" horiz-adv-x="800" d="M700 800L0 600V1400H700V800Z" />
<glyph unicode="a" glyph-name="a" horiz-adv-x="1400" d="M0 1400H1300V0H600V500H300V0H0V1400ZM300 1100V800H600V1100H300Z" />
<glyph unicode="b" glyph-name="b" horiz-adv-x="1500" d="M0 1400H1400L1100 700L1400 0H0V1400ZM300 1100V300H571L400 700L571 1100H300Z" />
<glyph unicode="c" glyph-name="c" horiz-adv-x="1400" d="M1300 1400V1100H700V300H1300V0H0V1400H1300Z" />
<glyph unicode="d" glyph-name="d" horiz-adv-x="1500" d="M464 300L636 1100H300V300H464ZM1400 1400L1100 0H0V1400H1400Z" />
<glyph unicode="e" glyph-name="e" horiz-adv-x="1400" d="M1300 1400V1100H700V850H1300V550H700V300H1300V0H0V1400H1300Z" />
<glyph unicode="f" glyph-name="f" horiz-adv-x="1400" d="M1300 1400V1100H700V850H1300V550H700V0H0V1400H1300Z" />
<glyph unicode="g" glyph-name="g" horiz-adv-x="1400" d="M1300 1400V1100H700V300H1000V550H850V850H1300V0H0V1400H1300Z" />
<glyph unicode="h" glyph-name="h" horiz-adv-x="1400" d="M300 550V0H0V1400H300V850H600V1400H1300V0H600V550H300Z" />
<glyph unicode="i" glyph-name="i" horiz-adv-x="800" d="M700 0H0V1400H700V0Z" />
<glyph unicode="j" glyph-name="j" horiz-adv-x="1400" d="M600 300V1400H1300V0H0V300H600Z" />
<glyph unicode="k" glyph-name="k" horiz-adv-x="1500" d="M300 550V0H0V1400H300V850H464L700 1400H1400L1100 700L1400 0H700L464 550H300Z" />
<glyph unicode="l" glyph-name="l" horiz-adv-x="1400" d="M0 1400H700V300H1300V0H0V1400Z" />
<glyph unicode="m" glyph-name="m" horiz-adv-x="1800" d="M800 1100V0H500V1100H300V0H0V1400H1700V0H1000V1100H800Z" />
<glyph unicode="n" glyph-name="n" horiz-adv-x="1400" d="M300 1100V0H0V1400H1300V0H600V1100H300Z" />
<glyph unicode="o" glyph-name="o" horiz-adv-x="1400" d="M0 1400H1300V0H0V1400ZM300 1100V300H600V1100H300Z" />
<glyph unicode="p" glyph-name="p" horiz-adv-x="1400" d="M1000 1100H700V850H1000V1100ZM1300 1400V550H700V0H0V1400H1300Z" />
<glyph unicode="q" glyph-name="q" horiz-adv-x="1400" d="M0 1400H1300V33L1400 -200H700L614 0H0V1400ZM300 1100V300H486L400 500H600V1100H300Z" />
<glyph unicode="r" glyph-name="r" horiz-adv-x="1500" d="M300 1100V0H0V1400H1400L1100 700L1400 0H700L400 700L571 1100H300Z" />
<glyph unicode="s" glyph-name="s" horiz-adv-x="1500" d="M0 0V300H550L0 1400H1400V1100H850L1400 0H0Z" />
<glyph unicode="t" glyph-name="t" horiz-adv-x="1400" d="M1300 1400V1100H1000V0H300V1100H0V1400H1300Z" />
<glyph unicode="u" glyph-name="u" horiz-adv-x="1400" d="M0 1400H300V300H600V1400H1300V0H0V1400Z" />
<glyph unicode="v" glyph-name="v" horiz-adv-x="1500" d="M500 467L700 1400H1400L1100 0H300L0 1400H300L500 467Z" />
<glyph unicode="w" glyph-name="w" horiz-adv-x="1800" d="M500 300V1400H800V300H1000V1400H1700V0H0V1400H300V300H500Z" />
<glyph unicode="x" glyph-name="x" horiz-adv-x="1500" d="M500 933L700 1400H1400L1100 700L1400 0H700L500 467L300 0H0L300 700L0 1400H300L500 933Z" />
<glyph unicode="y" glyph-name="y" horiz-adv-x="1400" d="M0 1400H300V900H600V1400H1300V0H0V300H600V600H0V1400Z" />
<glyph unicode="z" glyph-name="z" horiz-adv-x="1500" d="M550 1100H0V1400H1400L850 300H1400V0H0L550 1100Z" />
<glyph unicode="{" glyph-name="braceleft" horiz-adv-x="1200" d="M200 850V1400H1100V1100H900V300H1100V0H200V550H0V850H200Z" />
<glyph unicode="|" glyph-name="bar" horiz-adv-x="800" d="M700 0H0V1400H700V0Z" />
<glyph unicode="}" glyph-name="braceright" horiz-adv-x="1200" d="M900 850H1100V550H900V0H0V300H200V1100H0V1400H900V850Z" />
<glyph unicode="~" glyph-name="asciitilde" horiz-adv-x="1000" d="M900 550H0V850H900V550Z" />
</font>
</defs>
</svg>
