<svg xmlns="http://www.w3.org/2000/svg">
<defs>
<font horiz-adv-x="967" ><font-face
    font-family="Zosilla"
    units-per-em="2048"
    panose-1="2 0 5 0 0 0 0 0 0 0"
    ascent="1716"
    descent="-418"
    alphabetic="0" />
<missing-glyph horiz-adv-x="1600" d="M676 1396H708Q1043 1396 1272 1096Q1396 909 1396 716V676Q1396 362 1108 128Q914 0 720 0H688Q353 0 124 300Q0 487 0 680V720Q0 1034 288 1268Q482 1396 676 1396ZM96 880H100Q788 876 1184 876H1300Q1206 1140 1008 1240Q870
1324 712 1324H680Q412 1324 212 1096Q124 983 96 880ZM664 1252L692 1224L724 1252Q729 1252 756 1220Q750 1220 728 1192V1188Q728 1182 756 1160Q756 1166 784 1188H788Q794 1188 816 1160V1156Q816 1150 788 1128H784L752 1156L728 1128Q756 1098 756 1092L724
1064L692 1092L660 1064L632 1096L660 1128Q635 1156 632 1156L600 1128Q595 1128 568 1160L600 1188L632 1160L660 1192Q654 1192 632 1220Q632 1225 664 1252ZM692 1220L664 1188L696 1160Q696 1162 720 1188V1192Q720 1198 692 1220ZM692 1156L664 1124Q690
1100 692 1100Q698 1100 720 1128Q720 1134 692 1156ZM320 1008H332L360 1000V992L352 980Q330 984 320 984Q304 980 304 960Q304 943 324 936Q350 944 352 944L364 928Q351 918 328 912Q276 921 276 960Q284 1008 320 1008ZM372 1008H392Q400 1007 400 1000V972H428V1008H456V916H428V948H400V916H372V1008ZM476
1008H540V984H496V972H540V956Q540 948 532 948L524 952L516 948L496 952V940H536Q544 939 544 932V916H468V1000Q469 1008 476 1008ZM600 1008Q652 1001 652 964L644 932Q652 931 652 924Q652 918 636 908Q626 916 624 916Q602 912 592 912Q559 912 548 960Q548
1008 600 1008ZM668 1008H680Q688 1007 688 1000V960Q691 936 700 936H708Q714 936 720 948V1000L724 1008L732 1004H736L744 1008L748 1000V952Q743 912 708 912H700Q664 912 660 960V1000Q661 1008 668 1008ZM764 1008H772L796 1004Q804 1008 808 1008Q816 1004
820 1004Q828 1008 832 1008V988Q832 980 824 980Q817 984 808 984V980L800 984H788V972H832V956Q832 948 824 948H788V936H800Q804 936 804 940L812 936H820Q824 936 824 940Q832 936 836 936V916H816L792 912Q785 916 772 916V912Q764 916 760 916V988L764 1008ZM852

<glyph unicode=" " glyph-name="space" horiz-adv-x="300" />
<glyph unicode="!" glyph-name="exclam" horiz-adv-x="400" d="M200 0H0V200H200V0ZM200 400H0V1400H200V400Z" />
<glyph unicode="&quot;" glyph-name="quotedbl" horiz-adv-x="700" d="M200 1000H0V1400H200V1000ZM500 1000H300V1400H500V1000Z" />
<glyph unicode="#" glyph-name="numbersign" horiz-adv-x="1100" d="M150 500V900H0V1100H150V1400H350V1100H550V1400H750V1100H900V900H750V500H900V300H750V0H550V300H350V0H150V300H0V500H150ZM350 900V500H550V900H350Z" />
<glyph unicode="$" glyph-name="dollar" horiz-adv-x="1100" d="M350 1400V1600H550V1400H900V1200H550V758L900 556V0H550V-200H350V0H0V200H350V642L0 844V1400H350ZM550 200H700V440L550 526V200ZM350 1200H200V960L350 874V1200Z" />
<glyph unicode="%" glyph-name="percent" horiz-adv-x="1100" d="M200 440V0H0V556L700 960V1400H900V844L200 440ZM300 1100H0V1400H300V1100ZM900 0H600V300H900V0Z" />
<glyph unicode="&amp;" glyph-name="ampersand" horiz-adv-x="1100" d="M200 800H600V1000H800V800H900V600H800V200H900V0H0V1400H700V1200H200V800ZM600 600H200V200H600V600Z" />
<glyph unicode="&apos;" glyph-name="quotesingle" horiz-adv-x="400" d="M200 1000H0V1400H200V1000Z" />
<glyph unicode="(" glyph-name="parenleft" horiz-adv-x="700" d="M500 1500V1300H200V100H500V-100H0V1500H500Z" />
<glyph unicode=")" glyph-name="parenright" horiz-adv-x="700" d="M0 -100V100H300V1300H0V1500H500V-100H0Z" />
<glyph unicode="*" glyph-name="asterisk" horiz-adv-x="1100" d="M350 1127V1400H550V1127L784 1268L887 1096L644 950L887 804L784 632L550 773V500H350V773L116 632L13 804L256 950L13 1096L116 1268L350 1127Z" />
<glyph unicode="+" glyph-name="plus" horiz-adv-x="1100" d="M350 600H0V800H350V1150H550V800H900V600H550V250H350V600Z" />
<glyph unicode="," glyph-name="comma" horiz-adv-x="400" d="M200 -200H0V200H200V-200Z" />
<glyph unicode="-" glyph-name="hyphen" horiz-adv-x="1100" d="M0 600V800H900V600H0Z" />
<glyph unicode="." glyph-name="period" horiz-adv-x="400" d="M200 0H0V200H200V0Z" />
<glyph unicode="/" glyph-name="slash" horiz-adv-x="1100" d="M200 440V0H0V556L700 960V1400H900V844L200 440Z" />
<glyph unicode="0" glyph-name="zero" horiz-adv-x="1100" d="M900 1400V0H0V1400H900ZM700 1200H200V200H700V1200Z" />
<glyph unicode="1" glyph-name="one" horiz-adv-x="1100" d="M0 0V200H350V1200H0V1400H550V200H900V0H0Z" />
<glyph unicode="2" glyph-name="two" horiz-adv-x="1100" d="M700 1200H0V1400H900V844L200 440V200H900V0H0V556L700 960V1200Z" />
<glyph unicode="3" glyph-name="three" horiz-adv-x="1100" d="M700 1200H0V1400H900V0H0V200H700V600H200V800H700V1200Z" />
<glyph unicode="4" glyph-name="four" horiz-adv-x="1100" d="M0 1400H200V800H700V1400H900V0H700V600H0V1400Z" />
<glyph unicode="5" glyph-name="five" horiz-adv-x="1100" d="M900 1400V1200H200V960L900 556V0H0V200H700V440L0 844V1400H900Z" />
<glyph unicode="6" glyph-name="six" horiz-adv-x="1100" d="M900 1400V1200H200V960L900 556V0H0V1400H900ZM200 200H700V440L200 728V200Z" />
<glyph unicode="7" glyph-name="seven" horiz-adv-x="1100" d="M700 1200H0V1400H900V844L200 440V0H0V556L700 960V1200Z" />
<glyph unicode="8" glyph-name="eight" horiz-adv-x="1100" d="M900 1400V0H0V1400H900ZM200 200H700V600H200V200ZM700 1200H200V800H700V1200Z" />
<glyph unicode="9" glyph-name="nine" horiz-adv-x="1100" d="M900 1400V0H0V200H700V440L0 844V1400H900ZM700 1200H200V960L700 672V1200Z" />
<glyph unicode=":" glyph-name="colon" horiz-adv-x="400" d="M200 0H0V200H200V0ZM200 824H0V1024H200V824Z" />
<glyph unicode=";" glyph-name="semicolon" horiz-adv-x="400" d="M200 -200H0V200H200V-200ZM200 824H0V1024H200V824Z" />
<glyph unicode="&lt;" glyph-name="less" horiz-adv-x="700" d="M500 1500V1300H200V100H500V-100H0V1500H500Z" />
<glyph unicode="=" glyph-name="equal" horiz-adv-x="1100" d="M0 800V1000H900V800H0ZM0 400V600H900V400H0Z" />
<glyph unicode="&gt;" glyph-name="greater" horiz-adv-x="700" d="M0 -100V100H300V1300H0V1500H500V-100H0Z" />
<glyph unicode="?" glyph-name="question" horiz-adv-x="1100" d="M700 1200H0V1400H900V844L0 324V556L700 960V1200ZM200 200V0H0V200H200Z" />
<glyph unicode="@" glyph-name="at" horiz-adv-x="1100" d="M200 200H900V0H0V1400H900V400H400V1000H700V1200H200V200Z" />
<glyph unicode="A" glyph-name="A" horiz-adv-x="1100" d="M0 1400H900V0H700V600H200V0H0V1400ZM200 1200V800H700V1200H200Z" />
<glyph unicode="B" glyph-name="B" horiz-adv-x="1100" d="M0 0V1400H900L535 767L900 556V0H0ZM200 1200V960L361 868L553 1200H200ZM200 200H700V440L200 728V200Z" />
<glyph unicode="C" glyph-name="C" horiz-adv-x="1100" d="M900 1400V1200H200V200H900V0H0V1400H900Z" />
<glyph unicode="D" glyph-name="D" horiz-adv-x="1100" d="M700 1200H200V172L700 460V1200ZM900 1400V344L0 -176V1400H900Z" />
<glyph unicode="E" glyph-name="E" horiz-adv-x="1100" d="M900 1400V1200H200V800H700V600H200V200H900V0H0V1400H900Z" />
<glyph unicode="F" glyph-name="F" horiz-adv-x="1100" d="M900 1400V1200H200V800H900V600H200V0H0V1400H900Z" />
<glyph unicode="G" glyph-name="G" horiz-adv-x="1100" d="M900 1400V1200H200V200H700V600H400V800H900V0H0V1400H900Z" />
<glyph unicode="H" glyph-name="H" horiz-adv-x="1100" d="M200 600V0H0V1400H200V800H700V1400H900V0H700V600H200Z" />
<glyph unicode="I" glyph-name="I" horiz-adv-x="1100" d="M0 0V200H350V1200H0V1400H900V1200H550V200H900V0H0Z" />
<glyph unicode="J" glyph-name="J" horiz-adv-x="1100" d="M0 0V200H700V1400H900V0H0Z" />
<glyph unicode="K" glyph-name="K" horiz-adv-x="1100" d="M200 440V0H0V1400H200V672L700 960V1400H900V844L535 633L900 0H668L361 532L200 440Z" />
<glyph unicode="L" glyph-name="L" horiz-adv-x="1100" d="M200 200H900V0H0V1400H200V200Z" />
<glyph unicode="M" glyph-name="M" horiz-adv-x="1100" d="M200 1200V0H0V1400H900V0H700V1200H550V0H350V1200H200Z" />
<glyph unicode="N" glyph-name="N" horiz-adv-x="1100" d="M200 1200V0H0V1400H900V0H700V1200H200Z" />
<glyph unicode="O" glyph-name="O" horiz-adv-x="1100" d="M900 1400V0H0V1400H900ZM700 1200H200V200H700V1200Z" />
<glyph unicode="P" glyph-name="P" horiz-adv-x="1100" d="M700 1200H200V672L700 960V1200ZM900 1400V844L200 440V0H0V1400H900Z" />
<glyph unicode="Q" glyph-name="Q" horiz-adv-x="1100" d="M900 1400V0H0V1400H900ZM700 1200H200V200H350V500H550V200H700V1200Z" />
<glyph unicode="R" glyph-name="R" horiz-adv-x="1100" d="M700 1200H200V672L700 960V1200ZM900 1400V844L535 633L900 0H668L361 532L200 440V0H0V1400H900Z" />
<glyph unicode="S" glyph-name="S" horiz-adv-x="1100" d="M900 1400V1200H200V960L900 556V0H0V200H700V440L0 844V1400H900Z" />
<glyph unicode="T" glyph-name="T" horiz-adv-x="1100" d="M550 1200V0H350V1200H0V1400H900V1200H550Z" />
<glyph unicode="U" glyph-name="U" horiz-adv-x="1100" d="M0 1400H200V200H700V1400H900V0H0V1400Z" />
<glyph unicode="V" glyph-name="V" horiz-adv-x="1100" d="M700 172V1400H900V-176L0 344V1400H200V460L700 172Z" />
<glyph unicode="W" glyph-name="W" horiz-adv-x="1100" d="M0 1400H200V200H350V1400H550V200H700V1400H900V0H0V1400Z" />
<glyph unicode="X" glyph-name="X" horiz-adv-x="1100" d="M200 440V0H0V556L362 765L-5 1400H227L536 865L700 960V1400H900V844L535 633L900 0H668L361 532L200 440Z" />
<glyph unicode="Y" glyph-name="Y" horiz-adv-x="1100" d="M0 1400H200V800H700V1400H900V600H550V0H350V600H0V1400Z" />
<glyph unicode="Z" glyph-name="Z" horiz-adv-x="1100" d="M700 1200H0V1400H900V844L200 440V200H900V0H0V556L700 960V1200Z" />
<glyph unicode="[" glyph-name="bracketleft" horiz-adv-x="700" d="M500 1500V1300H200V100H500V-100H0V1500H500Z" />
<glyph unicode="\" glyph-name="backslash" horiz-adv-x="1100" d="M200 960L900 556V0H700V440L0 844V1400H200V960Z" />
<glyph unicode="]" glyph-name="bracketright" horiz-adv-x="700" d="M0 -100V100H300V1300H0V1500H500V-100H0Z" />
<glyph unicode="^" glyph-name="asciicircum" horiz-adv-x="400" d="M200 1000H0V1400H200V1000Z" />
<glyph unicode="_" glyph-name="underscore" horiz-adv-x="1100" d="M0 0V200H900V0H0Z" />
<glyph unicode="`" glyph-name="grave" horiz-adv-x="400" d="M200 1000H0V1400H200V1000Z" />
<glyph unicode="a" glyph-name="a" horiz-adv-x="1100" d="M700 628L200 340V200H700V628ZM700 1000H0V1200H900V0H0V456L700 860V1000Z" />
<glyph unicode="b" glyph-name="b" horiz-adv-x="1100" d="M0 0V1400H200V960L900 556V0H0ZM200 200H700V440L200 728V200Z" />
<glyph unicode="c" glyph-name="c" horiz-adv-x="1100" d="M900 1200V1000H200V200H900V0H0V1200H900Z" />
<glyph unicode="d" glyph-name="d" horiz-adv-x="1100" d="M900 0H0V556L700 960V1400H900V0ZM700 200V728L200 440V200H700Z" />
<glyph unicode="e" glyph-name="e" horiz-adv-x="1100" d="M700 1000H200V572L700 860V1000ZM900 1200V744L200 340V200H900V0H0V1200H900Z" />
<glyph unicode="f" glyph-name="f" horiz-adv-x="900" d="M700 1400V1200H200V1000H700V800H200V0H0V1400H700Z" />
<glyph unicode="g" glyph-name="g" horiz-adv-x="1100" d="M900 1200V-200H0V0H700V240L0 644V1200H900ZM700 1000H200V760L700 472V1000Z" />
<glyph unicode="h" glyph-name="h" horiz-adv-x="1100" d="M0 1400H200V672L900 1076V0H700V728L200 440V0H0V1400Z" />
<glyph unicode="i" glyph-name="i" horiz-adv-x="400" d="M0 1400H200V1200H0V1400ZM0 1000H200V0H0V1000Z" />
<glyph unicode="j" glyph-name="j" horiz-adv-x="400" d="M0 1400H200V1200H0V1400ZM0 0V1000H200V-200H-200V0H0Z" />
<glyph unicode="k" glyph-name="k" horiz-adv-x="1100" d="M200 340V0H0V1400H200V572L700 860V1200H900V744L492 508L900 -200H668L318 408L200 340Z" />
<glyph unicode="l" glyph-name="l" horiz-adv-x="400" d="M0 0V1400H200V0H0Z" />
<glyph unicode="m" glyph-name="m" horiz-adv-x="1100" d="M200 1000V0H0V1200H900V0H700V1000H550V0H350V1000H200Z" />
<glyph unicode="n" glyph-name="n" horiz-adv-x="1100" d="M200 640V0H0V1200H200V872L900 1276V0H700V928L200 640Z" />
<glyph unicode="o" glyph-name="o" horiz-adv-x="1100" d="M900 1200V0H0V1200H900ZM700 1000H200V200H700V1000Z" />
<glyph unicode="p" glyph-name="p" horiz-adv-x="1100" d="M700 1000H200V572L700 860V1000ZM900 1200V744L200 340V0H0V1200H900Z" />
<glyph unicode="q" glyph-name="q" horiz-adv-x="1100" d="M900 1200V-200H700V240L0 644V1200H900ZM700 1000H200V760L700 472V1000Z" />
<glyph unicode="r" glyph-name="r" horiz-adv-x="1100" d="M700 1000H200V572L700 860V1000ZM900 1200V744L492 508L900 -200H668L318 408L200 340V0H0V1200H900Z" />
<glyph unicode="s" glyph-name="s" horiz-adv-x="1100" d="M900 1200V1000H200V860L900 456V0H0V200H700V340L0 744V1200H900Z" />
<glyph unicode="t" glyph-name="t" horiz-adv-x="1100" d="M550 1000V0H350V1000H0V1200H350V1400H550V1200H900V1000H550Z" />
<glyph unicode="u" glyph-name="u" horiz-adv-x="1100" d="M0 1200H200V271L700 560V1200H900V0H700V328L0 -76V1200Z" />
<glyph unicode="v" glyph-name="v" horiz-adv-x="1100" d="M700 172V1200H900V-176L0 344V1200H200V460L700 172Z" />
<glyph unicode="w" glyph-name="w" horiz-adv-x="1100" d="M700 200V1200H900V0H0V1200H200V200H350V1200H550V200H700Z" />
<glyph unicode="x" glyph-name="x" horiz-adv-x="1100" d="M200 340V0H0V456L311 636L-15 1200H217L485 736L700 860V1200H900V744L585 562L910 0H678L411 462L200 340Z" />
<glyph unicode="y" glyph-name="y" horiz-adv-x="1100" d="M700 472V1200H900V-200H0V0H700V240L0 644V1200H200V760L700 472Z" />
<glyph unicode="z" glyph-name="z" horiz-adv-x="1100" d="M700 1000H0V1200H900V744L200 340V200H900V0H0V456L700 860V1000Z" />
<glyph unicode="{" glyph-name="braceleft" horiz-adv-x="900" d="M200 800V1500H700V1300H400V100H700V-100H200V600H0V800H200Z" />
<glyph unicode="|" glyph-name="bar" horiz-adv-x="400" d="M0 -100V1500H200V-100H0Z" />
<glyph unicode="}" glyph-name="braceright" horiz-adv-x="900" d="M500 600V-100H0V100H300V1300H0V1500H500V800H700V600H500Z" />
<glyph unicode="~" glyph-name="asciitilde" horiz-adv-x="1100" d="M0 600V800H900V600H0Z" />
</font>
</defs>
</svg>
